<?xml version="1.0" encoding="UTF-8"?>
<svg version="1.1" xmlns="http://www.w3.org/2000/svg" width="203" height="338">
<path d="M0 0 C2.95088581 0.60110637 5.38242766 1.04469274 8.375 0.828125 C13.27621783 1.14903807 16.62500131 4.65757852 20 8 C25.6600094 16.63607885 25.48010492 30.41992168 23.55322266 40.28808594 C22.01840172 46.27614273 19.88538773 52.03452388 17.375 57.6796875 C16.23054394 60.44328879 15.57012229 62.50060588 15.3125 65.4375 C15.209375 66.613125 15.10625 67.78875 15 69 C16.485 69.495 16.485 69.495 18 70 C18.309375 70.804375 18.61875 71.60875 18.9375 72.4375 C19.73516046 75.04873699 19.73516046 75.04873699 21.6328125 76.05078125 C24.67780227 77.271792 27.74686481 77.98665811 30.9375 78.75 C37.3488588 80.35772939 43.04133177 82.70755534 48.9921875 85.6171875 C51.79031349 86.90359867 54.47937424 87.84862852 57.4375 88.6875 C58.2315625 88.91953125 59.025625 89.1515625 59.84375 89.390625 C61.70539969 89.91674339 63.57110208 90.42848238 65.4375 90.9375 C69.21649701 93.97913174 69.47139155 97.5426635 70.359375 102.1875 C70.86678349 105.18590452 70.86678349 105.18590452 73 108 C73.53076172 110.19799805 73.53076172 110.19799805 73.9296875 112.76171875 C74.0831665 113.70716553 74.23664551 114.6526123 74.39477539 115.62670898 C74.55324951 116.63677002 74.71172363 117.64683105 74.875 118.6875 C75.9968381 125.54082431 77.21889962 132.24120437 79.0625 138.9375 C81.18450791 146.89920685 82.13350877 154.92573735 83.04907227 163.10522461 C83.16049561 164.09917236 83.27191895 165.09312012 83.38671875 166.1171875 C83.48170654 167.01034668 83.57669434 167.90350586 83.67456055 168.82373047 C83.89110421 171.04055323 83.89110421 171.04055323 85 173 C85.51059195 182.78961875 85.45212923 192.07054074 82.84375 201.57421875 C81.999104 205.00363793 81.49074445 208.36164959 81.02172852 211.85668945 C79.08809338 226.0644585 74.22208114 237.99769739 67.66796875 250.671875 C65.60244134 254.79325523 63.84780167 259.00128596 62.140625 263.28125 C61 266 61 266 59.39453125 268.62890625 C57.36927835 273.52468567 57.5067195 278.18670649 57.4375 283.4375 C57.27284056 292.8230881 56.25455393 301.59084551 55 311 C21.67 311 -11.66 311 -46 311 C-47.98 306.05 -47.98 306.05 -50 301 C-52.19291541 300.12928359 -54.38888211 299.26337476 -56.61328125 298.4765625 C-62.50356737 294.83249024 -65.91228114 286.39648626 -67.53564453 279.83496094 C-68.33704352 275.57819182 -68.75455048 271.32604775 -69 267 C-70.65 266.34 -72.3 265.68 -74 265 C-74.48085624 261.04187005 -74.95937137 257.08346029 -75.4375 253.125 C-75.57220703 252.01640625 -75.70691406 250.9078125 -75.84570312 249.765625 C-76.23813904 246.51127842 -76.61946047 243.25575557 -77 240 C-77.10078857 239.20464844 -77.20157715 238.40929687 -77.30541992 237.58984375 C-78.39935716 228.21727182 -78.324671 218.73979162 -78.47680664 209.31494141 C-78.63324855 200.02772515 -79.04016117 191.04906148 -80.58837891 181.87329102 C-81.74797685 173.77880215 -79.36057518 166.83527792 -76.93481445 159.20361328 C-75.07970889 153.03315519 -74.28280423 146.95967224 -73.625 140.5625 C-72.01632235 125.34391828 -68.88548289 108.80859137 -62 95 C-59.54798204 93.12872314 -57.39883283 92.13959149 -54.5 91.125 C-51.75551572 90.09029277 -51.75551572 90.09029277 -49.5625 87.3125 C-48.716875 86.549375 -47.87125 85.78625 -47 85 C-43.6875 85.1875 -43.6875 85.1875 -41 86 C-41 85.34 -41 84.68 -41 84 C-40.071875 83.5978125 -40.071875 83.5978125 -39.125 83.1875 C-36.7004767 82.04443152 -36.7004767 82.04443152 -35 79 C-32.6171875 78.70703125 -32.6171875 78.70703125 -29.875 78.8125 C-28.96492188 78.83957031 -28.05484375 78.86664063 -27.1171875 78.89453125 C-26.41851562 78.92933594 -25.71984375 78.96414062 -25 79 C-24.505 77.02 -24.505 77.02 -24 75 C-25.10408203 74.87044922 -25.10408203 74.87044922 -26.23046875 74.73828125 C-27.20628906 74.59777344 -28.18210938 74.45726563 -29.1875 74.3125 C-30.15042969 74.18488281 -31.11335938 74.05726562 -32.10546875 73.92578125 C-35.97114261 72.68939163 -37.58322009 71.26004485 -40 68 C-40.4189539 65.10199476 -40.61204933 62.69418449 -40.5625 59.8125 C-40.53122752 57.11103857 -40.66700827 54.70293286 -41 52 C-42.8954112 50.41596996 -42.8954112 50.41596996 -45 50 C-45.375 47.9375 -45.375 47.9375 -45 45 C-43.96547685 43.97108402 -42.89859274 42.9743248 -41.8125 42 C-40.04417065 40.2835001 -40.04417065 40.2835001 -39 38 C-39.34654326 32.49607765 -40.99560649 27.39374622 -43.12109375 22.328125 C-44.50097224 18.67298021 -44.15943429 15.63086 -43 12 C-36.61121305 -0.22566299 -36.61121305 -0.22566299 -30.25390625 -2.671875 C-19.89229216 -4.18032488 -9.89208794 -3.25693964 0 0 Z M51 168 C48.04480238 179.92633327 48.22809026 192.00550166 51 204 C51.66 204.33 52.32 204.66 53 205 C55.07273737 200.74717233 55.34674462 196.83878962 55.3125 192.1875 C55.31193604 191.47553467 55.31137207 190.76356934 55.31079102 190.0300293 C55.21635122 184.64078859 54.11495618 180.87359467 52 176 C52.4375 173.1875 52.4375 173.1875 53 171 C52.34 170.01 51.68 169.02 51 168 Z " fill="#1D1D1D" transform="translate(100,27)"/>
<path d="M0 0 C2.95088581 0.60110637 5.38242766 1.04469274 8.375 0.828125 C13.27621783 1.14903807 16.62500131 4.65757852 20 8 C25.6600094 16.63607885 25.48010492 30.41992168 23.55322266 40.28808594 C22.01840172 46.27614273 19.88538773 52.03452388 17.375 57.6796875 C16.23054394 60.44328879 15.57012229 62.50060588 15.3125 65.4375 C15.209375 66.613125 15.10625 67.78875 15 69 C15.99 69.33 16.98 69.66 18 70 C20 73 20 73 20.875 76.25 C21.77171632 79.23905441 22.56253244 81.15322292 24.125 83.75 C26 87 26 87 26 90 C26.66 90 27.32 90 28 90 C28.1363128 91.56002428 28.23259126 93.12357176 28.3125 94.6875 C28.37050781 95.55761719 28.42851562 96.42773438 28.48828125 97.32421875 C28 100 28 100 25.50708008 101.90673828 C21.65629175 106.65788134 22.3292624 111.22765519 22.3984375 117.16796875 C22.38642807 118.95295525 22.38642807 118.95295525 22.37417603 120.77400208 C22.35109607 124.57884699 22.36056482 128.38262625 22.375 132.1875 C22.37885795 135.97432257 22.37529679 139.7606696 22.35440063 143.54743958 C22.34239601 145.9014863 22.3448395 148.25566642 22.36410522 150.60966492 C22.33367783 159.6341524 20.9631656 167.6221783 16 175.3125 C15.505 176.09238281 15.01 176.87226563 14.5 177.67578125 C13.7575 178.82626953 13.7575 178.82626953 13 180 C11.56465952 182.34967997 10.17226958 184.63392714 9 187.125 C8 189 8 189 6.62109375 190.24609375 C3.76262513 193.33875016 2.35835385 197.30082252 0.59765625 201.08984375 C-0.97306671 203.95094058 -2.58316287 205.8337205 -5 208 C-6.20995254 207.10635485 -7.41786111 206.20994221 -8.625 205.3125 C-9.29789063 204.81363281 -9.97078125 204.31476563 -10.6640625 203.80078125 C-11.43492188 203.20652344 -12.20578125 202.61226562 -13 202 C-14.53346069 201.06607422 -14.53346069 201.06607422 -16.09790039 200.11328125 C-18.21537034 198.32432215 -18.92232046 197.33258859 -19.55914307 194.60600281 C-19.77683782 191.51942615 -19.80412066 188.48088871 -19.76953125 185.38671875 C-19.78050339 184.2359082 -19.79147552 183.08509766 -19.80278015 181.89941406 C-19.83287372 178.16172109 -19.8225251 174.42528016 -19.8125 170.6875 C-19.82748471 168.13450038 -19.84571856 165.58151778 -19.8671875 163.02856445 C-19.90784986 157.99168113 -19.93649776 152.95497797 -19.95556641 147.91796875 C-19.99549314 139.83867682 -20.16828375 131.76706263 -20.43466187 123.69229126 C-20.49865122 121.72888498 -20.5537429 119.76519514 -20.60864258 117.80151367 C-20.64497803 116.65400635 -20.68131348 115.50649902 -20.71875 114.32421875 C-20.74904297 113.35572998 -20.77933594 112.38724121 -20.81054688 111.3894043 C-20.91533026 108.85358634 -20.91533026 108.85358634 -22 106 C-22.66 106 -23.32 106 -24 106 C-24.391875 105.236875 -24.78375 104.47375 -25.1875 103.6875 C-27.65850019 100.02360316 -29.89189515 99.47271683 -34 98 C-33.67 96.68 -33.34 95.36 -33 94 C-34.65 93.67 -36.3 93.34 -38 93 C-35.44428082 90.44428082 -32.89464966 87.90183264 -30.25 85.4375 C-28.11767389 83.12748005 -27.33978908 82.05810168 -27 79 C-26.34 79 -25.68 79 -25 79 C-24.67 77.68 -24.34 76.36 -24 75 C-25.10408203 74.87044922 -25.10408203 74.87044922 -26.23046875 74.73828125 C-27.20628906 74.59777344 -28.18210937 74.45726563 -29.1875 74.3125 C-30.15042969 74.18488281 -31.11335938 74.05726562 -32.10546875 73.92578125 C-35.97114261 72.68939163 -37.58322009 71.26004485 -40 68 C-40.4189539 65.10199476 -40.61204933 62.69418449 -40.5625 59.8125 C-40.53122752 57.11103857 -40.66700827 54.70293286 -41 52 C-42.8954112 50.41596996 -42.8954112 50.41596996 -45 50 C-45.375 47.9375 -45.375 47.9375 -45 45 C-43.96547685 43.97108402 -42.89859274 42.9743248 -41.8125 42 C-40.04417065 40.2835001 -40.04417065 40.2835001 -39 38 C-39.34654326 32.49607765 -40.99560649 27.39374622 -43.12109375 22.328125 C-44.50097224 18.67298021 -44.15943429 15.63086 -43 12 C-36.61121305 -0.22566299 -36.61121305 -0.22566299 -30.25390625 -2.671875 C-19.89229216 -4.18032488 -9.89208794 -3.25693964 0 0 Z " fill="#999999" transform="translate(100,27)"/>
<path d="M0 0 C0.51691406 0.29390625 1.03382812 0.5878125 1.56640625 0.890625 C4.62340408 2.2841842 7.67002279 2.96827408 10.9375 3.75 C17.3488588 5.35772939 23.04133177 7.70755534 28.9921875 10.6171875 C31.79031349 11.90359867 34.47937424 12.84862852 37.4375 13.6875 C38.2315625 13.91953125 39.025625 14.1515625 39.84375 14.390625 C41.70539969 14.91674339 43.57110208 15.42848238 45.4375 15.9375 C49.21649701 18.97913174 49.47139155 22.5426635 50.359375 27.1875 C50.86678349 30.18590452 50.86678349 30.18590452 53 33 C53.53076172 35.19799805 53.53076172 35.19799805 53.9296875 37.76171875 C54.0831665 38.70716553 54.23664551 39.6526123 54.39477539 40.62670898 C54.63248657 42.14180054 54.63248657 42.14180054 54.875 43.6875 C55.9968381 50.54082431 57.21889962 57.24120437 59.0625 63.9375 C61.18450791 71.89920685 62.13350877 79.92573735 63.04907227 88.10522461 C63.21620728 89.59614624 63.21620728 89.59614624 63.38671875 91.1171875 C63.48170654 92.01034668 63.57669434 92.90350586 63.67456055 93.82373047 C63.89110421 96.04055323 63.89110421 96.04055323 65 98 C65.5235547 108.03815445 65.37952791 117.48506686 62.734375 127.2421875 C61.78092727 130.82268801 61.36096777 134.31812874 61 138 C58.37098712 136.47793991 56.15634036 135.15634036 54 133 C53.67 133.99 53.34 134.98 53 136 C54.485 136.99 54.485 136.99 56 138 C55.505 140.97 55.505 140.97 55 144 C54.40832031 143.91621094 53.81664062 143.83242187 53.20703125 143.74609375 C48.90060543 143.19110576 45.24447356 142.76773348 41 144 C41 144.66 41 145.32 41 146 C39.9275 145.9175 38.855 145.835 37.75 145.75 C33.95990735 145.63762783 33.95990735 145.63762783 31.5625 148 C30.7890625 148.99 30.7890625 148.99 30 150 C29.95758277 147.66705225 29.95907063 145.33297433 30 143 C30.33 142.67 30.66 142.34 31 142 C31.04080783 140.00041636 31.04254356 137.99954746 31 136 C30.9071875 137.1446875 30.9071875 137.1446875 30.8125 138.3125 C29.72593537 141.90652146 28.23874025 142.23341441 25 144 C24.175 144.825 23.35 145.65 22.5 146.5 C20 149 20 149 17.4375 150.5 C14.53272078 152.28755644 13.0188137 154.26483306 11 157 C9.71332828 158.70294787 8.38903267 160.37946188 7 162 C6.34 162 5.68 162 5 162 C5 162.99 5 163.98 5 165 C1.56072421 163.7580393 -1.25207819 162.44259716 -4 160 C-4 159.34 -4 158.68 -4 158 C-4.8353125 157.62875 -4.8353125 157.62875 -5.6875 157.25 C-8.3993235 155.78414946 -10.6152634 153.94544301 -13 152 C-13.66 151.67 -14.32 151.34 -15 151 C-15 150.01 -15 149.02 -15 148 C-15.99 148 -16.98 148 -18 148 C-18.33 147.34 -18.66 146.68 -19 146 C-21.32156597 145.59270772 -23.6568787 145.25561323 -26 145 C-26.6875 142.75 -26.6875 142.75 -27 140 C-25.5625 137.6875 -25.5625 137.6875 -24 136 C-26.475 133.525 -26.475 133.525 -29 131 C-26 131 -26 131 -24 132 C-20.38250238 126.1155372 -16.99718414 120.22492092 -14 114 C-13.34 114 -12.68 114 -12 114 C-11.773125 112.96875 -11.54625 111.9375 -11.3125 110.875 C-10.33493149 107.4153781 -8.71714515 105.2770685 -6.30078125 102.58984375 C0.86719884 93.82897919 1.28283458 83.16541807 1.2734375 72.36328125 C1.29371181 69.90559428 1.3145623 67.44791201 1.3359375 64.99023438 C1.3585969 61.13887534 1.37503748 57.28770212 1.38085938 53.4362793 C1.39036113 49.70327761 1.42409184 45.97109902 1.4609375 42.23828125 C1.45589203 41.08612625 1.45084656 39.93397125 1.44564819 38.74690247 C1.54394715 30.78009654 1.54394715 30.78009654 3.90869141 26.73510742 C6 25 6 25 8 25 C7.814375 24.0925 7.62875 23.185 7.4375 22.25 C7.04265379 19.31685676 7.05308428 17.7355343 8 15 C7.34 15 6.68 15 6 15 C5.17988688 13.44148245 4.36923787 11.87798284 3.5625 10.3125 C3.11003906 9.44238281 2.65757813 8.57226562 2.19140625 7.67578125 C1.04008072 5.09001736 0.43679247 2.78643472 0 0 Z M31 93 C28.04480238 104.92633327 28.22809026 117.00550166 31 129 C31.66 129.33 32.32 129.66 33 130 C35.07273737 125.74717233 35.34674462 121.83878962 35.3125 117.1875 C35.31193604 116.47553467 35.31137207 115.76356934 35.31079102 115.0300293 C35.21635122 109.64078859 34.11495618 105.87359467 32 101 C32.4375 98.1875 32.4375 98.1875 33 96 C32.34 95.01 31.68 94.02 31 93 Z " fill="#292929" transform="translate(120,102)"/>
<path d="M0 0 C3 1 3 1 5 4 C5.28875 5.0725 5.5775 6.145 5.875 7.25 C6.77171632 10.23905441 7.56253244 12.15322292 9.125 14.75 C11 18 11 18 11 21 C11.66 21 12.32 21 13 21 C13.1363128 22.56002428 13.23259126 24.12357176 13.3125 25.6875 C13.37050781 26.55761719 13.42851562 27.42773438 13.48828125 28.32421875 C13 31 13 31 10.50708008 32.90673828 C6.65629175 37.65788134 7.3292624 42.22765519 7.3984375 48.16796875 C7.39043121 49.35795975 7.38242493 50.54795074 7.37417603 51.77400208 C7.35109607 55.57884699 7.36056482 59.38262625 7.375 63.1875 C7.37885795 66.97432257 7.37529679 70.7606696 7.35440063 74.54743958 C7.34239601 76.9014863 7.3448395 79.25566642 7.36410522 81.60966492 C7.33367783 90.6341524 5.9631656 98.6221783 1 106.3125 C0.505 107.09238281 0.01 107.87226563 -0.5 108.67578125 C-0.995 109.44277344 -1.49 110.20976562 -2 111 C-3.43534048 113.34967997 -4.82773042 115.63392714 -6 118.125 C-7 120 -7 120 -8.37890625 121.24609375 C-11.23737487 124.33875016 -12.64164615 128.30082252 -14.40234375 132.08984375 C-15.97306671 134.95094058 -17.58316287 136.8337205 -20 139 C-21.20995254 138.10635485 -22.41786111 137.20994221 -23.625 136.3125 C-24.29789063 135.81363281 -24.97078125 135.31476563 -25.6640625 134.80078125 C-26.43492188 134.20652344 -27.20578125 133.61226562 -28 133 C-29.53346069 132.06607422 -29.53346069 132.06607422 -31.09790039 131.11328125 C-33.21537034 129.32432215 -33.92232046 128.33258859 -34.55914307 125.60600281 C-34.77683782 122.51942615 -34.80412066 119.48088871 -34.76953125 116.38671875 C-34.78050339 115.2359082 -34.79147552 114.08509766 -34.80278015 112.89941406 C-34.83287372 109.16172109 -34.8225251 105.42528016 -34.8125 101.6875 C-34.82748471 99.13450038 -34.84571856 96.58151778 -34.8671875 94.02856445 C-34.90784986 88.99168113 -34.93649776 83.95497797 -34.95556641 78.91796875 C-34.99549314 70.83867682 -35.16828375 62.76706263 -35.43466187 54.69229126 C-35.49865122 52.72888498 -35.5537429 50.76519514 -35.60864258 48.80151367 C-35.64497803 47.65400635 -35.68131348 46.50649902 -35.71875 45.32421875 C-35.74904297 44.35572998 -35.77933594 43.38724121 -35.81054688 42.3894043 C-35.91533026 39.85358634 -35.91533026 39.85358634 -37 37 C-37.66 37 -38.32 37 -39 37 C-39.5878125 35.8553125 -39.5878125 35.8553125 -40.1875 34.6875 C-42.65850019 31.02360316 -44.89189515 30.47271683 -49 29 C-48.67 27.68 -48.34 26.36 -48 25 C-49.65 24.67 -51.3 24.34 -53 24 C-50.44428082 21.44428082 -47.89464966 18.90183264 -45.25 16.4375 C-43.11767389 14.12748005 -42.33978908 13.05810168 -42 10 C-40.02 9.67 -38.04 9.34 -36 9 C-35.92523438 9.54785156 -35.85046875 10.09570312 -35.7734375 10.66015625 C-34.86415009 16.14262446 -33.27413601 21.07525185 -31.125 26.1875 C-27.00505271 36.06933879 -24.00102131 46.02694441 -23.28125 56.76953125 C-22.81676018 60.45319359 -21.4494895 63.59685074 -20 67 C-18.43678467 64.15779032 -17.66024655 61.68963251 -17.125 58.5 C-16.28343297 54.43132161 -15.09785553 52.8162323 -12 50 C-10.98470459 47.67328135 -9.98511802 45.3396553 -9 43 C-8.38125 42.236875 -7.7625 41.47375 -7.125 40.6875 C-3.30341732 35.8543219 -0.27364522 30.06031185 1 24 C1.66 24 2.32 24 3 24 C2.55348122 15.84515697 1.88849677 7.95735532 0 0 Z " fill="#A4A4A4" transform="translate(115,96)"/>
<path d="M0 0 C2.95088581 0.60110637 5.38242766 1.04469274 8.375 0.828125 C13.27621783 1.14903807 16.62500131 4.65757852 20 8 C25.66765218 16.64774025 25.46902099 30.42370487 23.55322266 40.30419922 C21.79839001 47.20977661 19.30565311 53.67951371 16 60 C15.01 60 14.02 60 13 60 C10.2393323 53.72575522 9.29221368 47.78026262 8.52734375 40.9765625 C8.27401803 37.89207784 8.27401803 37.89207784 6 36 C3.36709421 35.79213902 1.4286853 35.84411443 -1.0625 36.75 C-1.701875 36.8325 -2.34125 36.915 -3 37 C-5.25 35.0625 -5.25 35.0625 -7 33 C-7.495 33.99 -7.495 33.99 -8 35 C-8.226875 34.401875 -8.45375 33.80375 -8.6875 33.1875 C-10.34268253 30.42886244 -12.20184321 29.50669981 -15 28 C-17.10320971 25.89679029 -16.38225817 21.41599957 -16.5234375 18.56640625 C-16.68070313 17.71949219 -16.83796875 16.87257813 -17 16 C-19.85862458 13.68236857 -19.85862458 13.68236857 -23.3125 14.0625 C-28.7511245 15.44520114 -31.75478072 18.04322685 -34.75 22.75 C-36.29443727 26.7655369 -37.20291664 30.78014693 -38 35 C-38.66 35 -39.32 35 -40 35 C-40.12117188 34.33613281 -40.24234375 33.67226563 -40.3671875 32.98828125 C-41.3493799 27.55337788 -41.3493799 27.55337788 -43.1875 22.375 C-44.45043984 18.68332971 -44.16188702 15.63854093 -43 12 C-36.61121305 -0.22566299 -36.61121305 -0.22566299 -30.25390625 -2.671875 C-19.89229216 -4.18032488 -9.89208794 -3.25693964 0 0 Z " fill="#1F1F1F" transform="translate(100,27)"/>
<path d="M0 0 C3 1 3 1 5 4 C5.28875 5.0725 5.5775 6.145 5.875 7.25 C6.77171632 10.23905441 7.56253244 12.15322292 9.125 14.75 C11 18 11 18 11 21 C11.66 21 12.32 21 13 21 C13.78431373 29.97603486 13.78431373 29.97603486 10.75 33.9375 C8 36 8 36 5.6875 37.375 C5.130625 37.91125 4.57375 38.4475 4 39 C4.00580078 40.54107422 4.00580078 40.54107422 4.01171875 42.11328125 C3.99921927 46.2589435 3.21439335 49.85259593 2.125 53.8125 C1.75190561 55.22343082 1.38080638 56.63489075 1.01171875 58.046875 C0.83431152 58.72427734 0.6569043 59.40167969 0.47412109 60.09960938 C-0.14222185 62.57005915 -0.61287144 65.05687757 -1.0625 67.5625 C-2.07714636 72.83866108 -3.84445477 77.33919612 -6.9296875 81.7734375 C-10.26995551 87.57862998 -10.74257821 94.41763642 -11.75 100.9375 C-11.97138777 102.30294065 -12.19403336 103.66817798 -12.41796875 105.03320312 C-12.95769343 108.35368324 -13.48460038 111.67567247 -14 115 C-14.66 115 -15.32 115 -16 115 C-16 116.65 -16 118.3 -16 120 C-16.66 120 -17.32 120 -18 120 C-17.95875 121.11375 -17.9175 122.2275 -17.875 123.375 C-18 127 -18 127 -20 129 C-20.91156728 126.26529816 -21.14464449 124.56501367 -21.19287109 121.74169922 C-21.20871246 120.8808522 -21.22455383 120.02000519 -21.24087524 119.1330719 C-21.25162079 118.19970505 -21.26236633 117.2663382 -21.2734375 116.3046875 C-21.28587494 115.33212509 -21.29831238 114.35956268 -21.31112671 113.35752869 C-21.34371878 110.19664816 -21.3624739 107.03602221 -21.375 103.875 C-21.37922974 102.80865326 -21.38345947 101.74230652 -21.38781738 100.64364624 C-21.43510293 60.27284436 -21.43510293 60.27284436 -13.921875 51.6015625 C-13.28765625 51.07304687 -12.6534375 50.54453125 -12 50 C-10.98470459 47.67328135 -9.98511802 45.3396553 -9 43 C-8.38125 42.236875 -7.7625 41.47375 -7.125 40.6875 C-3.30341732 35.8543219 -0.27364522 30.06031185 1 24 C1.66 24 2.32 24 3 24 C2.55348122 15.84515697 1.88849677 7.95735532 0 0 Z " fill="#C6C6C6" transform="translate(115,96)"/>
<path d="M0 0 C2.59806979 2.59806979 2.19209738 3.77538739 2.25 7.375 C2.38182342 10.32492723 2.38182342 10.32492723 3 13 C5.84730711 15.56680314 5.84730711 15.56680314 9 17 C9.495 18.485 9.495 18.485 10 20 C11.32 19.67 12.64 19.34 14 19 C14.495 20.485 14.495 20.485 15 22 C15.66 22.66 16.32 23.32 17 24 C15.68 24 14.36 24 13 24 C12.505 25.485 12.505 25.485 12 27 C10.35 26.67 8.7 26.34 7 26 C6.97421875 25.37351562 6.9484375 24.74703125 6.921875 24.1015625 C6.86515625 23.28429687 6.8084375 22.46703125 6.75 21.625 C6.70359375 20.81289063 6.6571875 20.00078125 6.609375 19.1640625 C6.21215349 16.84897769 6.21215349 16.84897769 4.140625 15.7734375 C2.43584602 15.15747721 0.71962513 14.57320838 -1 14 C-1.7306539 17.98677336 -1.7306539 17.98677336 -2 22 C-0.72780266 24.02977977 -0.72780266 24.02977977 1 25 C-0.5056807 28.83264178 -2.76831262 30.537762 -6 33 C-9.15407015 35.47210904 -9.9043696 36.41559198 -10.5625 40.4375 C-9.866522 44.84536069 -8.37651537 46.19996287 -5 49 C-4.505 49.495 -4.505 49.495 -4 50 C-1.98035801 50.07244053 0.04167124 50.08377188 2.0625 50.0625 C3.16722656 50.05347656 4.27195312 50.04445312 5.41015625 50.03515625 C6.69212891 50.01775391 6.69212891 50.01775391 8 50 C3.49604863 54.50395137 -3.94085988 54.87438899 -10 56 C-10 56.66 -10 57.32 -10 58 C-8.87851563 58.29003906 -8.87851563 58.29003906 -7.734375 58.5859375 C-6.74953125 58.84632812 -5.7646875 59.10671875 -4.75 59.375 C-3.77546875 59.63023438 -2.8009375 59.88546875 -1.796875 60.1484375 C0.65837303 60.89598509 2.75617405 61.77123817 5 63 C5 63.66 5 64.32 5 65 C5.66 65 6.32 65 7 65 C9.04169485 67.90548882 10 69.40142046 10 73 C8.8553125 72.5359375 8.8553125 72.5359375 7.6875 72.0625 C5.81210323 71.32106407 3.91315348 70.63771783 2 70 C2 69.34 2 68.68 2 68 C0.02 68.99 0.02 68.99 -2 70 C-3 69 -3 69 -3.0625 66.4375 C-3.041875 65.633125 -3.02125 64.82875 -3 64 C-4.32 63.67 -5.64 63.34 -7 63 C-6.67 62.34 -6.34 61.68 -6 61 C-6.73605469 60.91363281 -7.47210938 60.82726562 -8.23046875 60.73828125 C-9.20628906 60.59777344 -10.18210937 60.45726562 -11.1875 60.3125 C-12.15042969 60.18488281 -13.11335938 60.05726562 -14.10546875 59.92578125 C-17.97114261 58.68939163 -19.58322009 57.26004485 -22 54 C-22.4189539 51.10199476 -22.61204933 48.69418449 -22.5625 45.8125 C-22.53122752 43.11103857 -22.66700827 40.70293286 -23 38 C-24.8954112 36.41596996 -24.8954112 36.41596996 -27 36 C-27.375 33.9375 -27.375 33.9375 -27 31 C-25.734375 29.53125 -25.734375 29.53125 -24.125 27.9375 C-21.14242511 24.75330583 -20.48529219 22.36890594 -19.9375 18.0625 C-18.99185087 10.64564405 -16.4233175 5.70645327 -10.625 0.9375 C-6.92713372 -1.47380011 -4.2441293 -1.24827332 0 0 Z " fill="#787878" transform="translate(82,41)"/>
<path d="M0 0 C3.74494443 4.54128319 5.46436877 9.50973349 7.25 15.0625 C7.518125 15.85205078 7.78625 16.64160156 8.0625 17.45507812 C9.35913935 21.401228 10.37270833 24.79008999 10 29 C7.6875 28.8125 7.6875 28.8125 5 28 C3.1875 25.4375 3.1875 25.4375 2 23 C2.386385 26.11772728 2.89788559 29.05082349 4 32 C6.99371105 34.38615002 6.99371105 34.38615002 10 36 C10 36.99 10 37.98 10 39 C9.01 39 8.02 39 7 39 C7 39.66 7 40.32 7 41 C-8.82664792 40.46441124 -8.82664792 40.46441124 -14 36 C-20.43764662 27.38895986 -23.23031203 18.73996972 -23.0625 8 C-23.05347656 7.236875 -23.04445313 6.47375 -23.03515625 5.6875 C-23.02355469 5.130625 -23.01195313 4.57375 -23 4 C-6.9356535 -1.11865379 -6.9356535 -1.11865379 0 0 Z " fill="#808080" transform="translate(55,288)"/>
<path d="M0 0 C2 1 2 1 3.125 3.6875 C4.71852949 9.61343779 4.15174116 15.92192359 4 22 C3.34 22 2.68 22 2 22 C1.89300781 22.87527344 1.78601563 23.75054687 1.67578125 24.65234375 C0.19552605 31.98516865 -4.30887787 38.30363742 -9 44 C-9.67349161 45.66392045 -10.3409159 47.33032028 -11 49 C-11.72316406 49.62841797 -11.72316406 49.62841797 -12.4609375 50.26953125 C-14.60003173 52.67465497 -14.89781247 54.93656951 -15.5625 58.0625 C-16.79166667 63.79166667 -16.79166667 63.79166667 -19 66 C-21.78519466 60.889303 -23.25439115 56.22734495 -23.9375 50.4375 C-25.3968788 38.55764448 -29.61872604 27.48295453 -34.1796875 16.4765625 C-35 14 -35 14 -34 12 C-31.9375 11.375 -31.9375 11.375 -30 11 C-30 11.66 -30 12.32 -30 13 C-29.236875 13.12375 -28.47375 13.2475 -27.6875 13.375 C-25 14 -25 14 -22 16 C-20.8125 19.625 -20.8125 19.625 -20 23 C-18.68 23.33 -17.36 23.66 -16 24 C-16 26.31 -16 28.62 -16 31 C-12.81214939 30.3181413 -12.81214939 30.3181413 -11.6875 27.5625 C-9.53754024 24.29774629 -7.71466789 23.90802993 -4 23 C-4 21.02 -4 19.04 -4 17 C-3.34 17 -2.68 17 -2 17 C-2.04125 16.0925 -2.0825 15.185 -2.125 14.25 C-2 11 -2 11 -1 9.0625 C0.45962304 6.05202748 0.12659587 3.29149266 0 0 Z " fill="#939393" transform="translate(114,98)"/>
<path d="M0 0 C6.89863084 4.270581 9.82372905 11.42036213 12 19 C12.72140909 24.079996 12.70742378 29.0258251 12.5859375 34.1484375 C12.57470661 35.54088484 12.56618492 36.93335636 12.56021118 38.32583618 C12.53761691 41.9398279 12.47896367 45.55230534 12.4119873 49.16571045 C12.34991611 52.87328622 12.32305994 56.58111371 12.29296875 60.2890625 C12.22917834 67.52672205 12.12717483 74.76314659 12 82 C11.34 82 10.68 82 10 82 C9.87882812 81.07058594 9.75765625 80.14117187 9.6328125 79.18359375 C8.78611944 72.93760415 7.74755849 67.05820277 6 61 C4.98777299 54.34659771 4.87137084 47.71730036 5 41 C4.34 41 3.68 41 3 41 C3 44.63 3 48.26 3 52 C2.67 52 2.34 52 2 52 C0.67479129 34.64188059 -0.32597187 17.42138548 0 0 Z " fill="#D3D3D3" transform="translate(80,146)"/>
<path d="M0 0 C0.61272308 10.62053334 -2.28672785 21.00583889 -8 30 C-8.66 30.33 -9.32 30.66 -10 31 C-10.495 32.485 -10.495 32.485 -11 34 C-11.66 34 -12.32 34 -13 34 C-13.12117188 35.24136719 -13.24234375 36.48273438 -13.3671875 37.76171875 C-13.53607548 39.40368526 -13.7053676 41.04561023 -13.875 42.6875 C-13.99294922 43.91243164 -13.99294922 43.91243164 -14.11328125 45.16210938 C-14.56979868 49.49902492 -15.33737447 52.95157441 -17 57 C-17.35594665 60.413852 -17.50251391 63.80606027 -17.65625 67.234375 C-17.82640625 68.60335937 -17.82640625 68.60335937 -18 70 C-18.99 70.495 -18.99 70.495 -20 71 C-20.10056499 65.22408859 -20.17224902 59.44871131 -20.21972656 53.67211914 C-20.23956473 51.71629944 -20.26664404 49.76053673 -20.30175781 47.80493164 C-20.48140678 37.52531197 -20.32133047 27.56846373 -18.296875 17.45703125 C-18.14929749 16.68872482 -18.00171997 15.9204184 -17.84967041 15.12882996 C-16.66180808 9.88912426 -14.81454276 6.80546051 -11 3 C-7.6875 1.625 -7.6875 1.625 -5 1 C-5 1.66 -5 2.32 -5 3 C-4.34 3 -3.68 3 -3 3 C-3 2.34 -3 1.68 -3 1 C-1 0 -1 0 0 0 Z " fill="#E7E7E7" transform="translate(115,141)"/>
<path d="M0 0 C0.07476562 0.54785156 0.14953125 1.09570312 0.2265625 1.66015625 C1.13587703 7.14278795 2.72655137 12.0748958 4.875 17.1875 C9.71504808 28.83640424 12.57238612 40.3212484 13 53 C12.34 53 11.68 53 11 53 C10.32880451 51.5437455 9.66318193 50.08492133 9 48.625 C8.62875 47.81289062 8.2575 47.00078125 7.875 46.1640625 C7 44 7 44 7 42 C6.34 42 5.68 42 5 42 C3.99515796 40.04414675 2.99626195 38.08523763 2 36.125 C1.443125 35.03445312 0.88625 33.94390625 0.3125 32.8203125 C-1 30 -1 30 -1 28 C-1.66 28 -2.32 28 -3 28 C-3.391875 27.236875 -3.78375 26.47375 -4.1875 25.6875 C-6.65850019 22.02360316 -8.89189515 21.47271683 -13 20 C-12.67 18.68 -12.34 17.36 -12 16 C-13.65 15.67 -15.3 15.34 -17 15 C-14.44428082 12.44428082 -11.89464966 9.90183264 -9.25 7.4375 C-7.04721487 5.05114944 -6.54780922 4.06773164 -6 1 C-4 0 -4 0 0 0 Z " fill="#D7D7D7" transform="translate(79,105)"/>
<path d="M0 0 C2.50298434 2.93828597 3.46930939 5.17902761 4 9 C4.66 9 5.32 9 6 9 C6.67408308 10.26691507 7.33900497 11.53870749 8 12.8125 C8.556875 13.87404297 8.556875 13.87404297 9.125 14.95703125 C10 17 10 17 10 20 C10.66 20 11.32 20 12 20 C12.33 19.34 12.66 18.68 13 18 C13.66 20.31 14.32 22.62 15 25 C15.66 24.67 16.32 24.34 17 24 C16.86722656 24.76441406 16.73445313 25.52882812 16.59765625 26.31640625 C14.02147668 41.94272172 13.77631162 57.64058085 13.4375 73.4375 C13.39417962 75.34440787 13.35056172 77.251309 13.30664062 79.15820312 C13.20100584 83.77206516 13.09936669 88.38599889 13 93 C8.26943018 91.76104124 3.86346052 90.13103285 1 86 C0.18878725 82.54252303 0.29985929 79.20279024 0.4140625 75.66796875 C0.42255219 74.67622147 0.43104187 73.68447418 0.43978882 72.66267395 C0.47330642 69.5031654 0.54858484 66.34623361 0.625 63.1875 C0.65510162 61.04235463 0.68247708 58.89716916 0.70703125 56.75195312 C0.77309144 51.5004268 0.87342215 46.25039748 1 41 C1.33 41 1.66 41 2 41 C2.33 43.64 2.66 46.28 3 49 C3.66 49 4.32 49 5 49 C5.08564209 49.78238037 5.17128418 50.56476074 5.25952148 51.37084961 C5.64767444 54.89358015 6.0424957 58.41553141 6.4375 61.9375 C6.57220703 63.16919922 6.70691406 64.40089844 6.84570312 65.66992188 C6.97783203 66.83974609 7.10996094 68.00957031 7.24609375 69.21484375 C7.36654053 70.29886475 7.4869873 71.38288574 7.61108398 72.49975586 C7.73802803 74.93470137 7.73802803 74.93470137 9 76 C9.23527773 78.34987262 9.41386417 80.70556039 9.5625 83.0625 C9.64628906 84.35285156 9.73007813 85.64320313 9.81640625 86.97265625 C9.87699219 87.97167969 9.93757813 88.97070312 10 90 C10.66 90 11.32 90 12 90 C11.9617797 81.95821573 11.90218407 73.91698223 11.81609726 65.87558174 C11.77676793 62.14067074 11.74450903 58.40599035 11.72900391 54.67089844 C11.71374025 51.05903889 11.67912664 47.44781401 11.63169098 43.83623886 C11.61697624 42.46576361 11.60896474 41.09519769 11.60811615 39.72464371 C11.59432787 28.6106745 9.7529069 19.93126396 3 11 C2.4225 10.54625 1.845 10.0925 1.25 9.625 C-0.93567179 6.78362668 -0.17083569 3.47365897 0 0 Z " fill="#BEBEBE" transform="translate(80,138)"/>
<path d="M0 0 C2.59806979 2.59806979 2.19209738 3.77538739 2.25 7.375 C2.38182342 10.32492723 2.38182342 10.32492723 3 13 C5.84730711 15.56680314 5.84730711 15.56680314 9 17 C9.33 17.99 9.66 18.98 10 20 C11.32 19.67 12.64 19.34 14 19 C14.495 20.485 14.495 20.485 15 22 C15.66 22.66 16.32 23.32 17 24 C15.68 24 14.36 24 13 24 C12.505 25.485 12.505 25.485 12 27 C10.35 26.67 8.7 26.34 7 26 C6.97421875 25.37351562 6.9484375 24.74703125 6.921875 24.1015625 C6.86515625 23.28429687 6.8084375 22.46703125 6.75 21.625 C6.70359375 20.81289063 6.6571875 20.00078125 6.609375 19.1640625 C6.21899471 16.833655 6.21899471 16.833655 4.078125 15.8359375 C3.39234375 15.56007813 2.7065625 15.28421875 2 15 C1.34 14.34 0.68 13.68 0 13 C0.0234375 10.6171875 0.0234375 10.6171875 0.375 7.875 C0.48585938 6.96492188 0.59671875 6.05484375 0.7109375 5.1171875 C0.80632812 4.41851562 0.90171875 3.71984375 1 3 C-5.11302838 3.57959166 -5.11302838 3.57959166 -10 7 C-10.33 7.99 -10.66 8.98 -11 10 C-10.01 10 -9.02 10 -8 10 C-8 10.66 -8 11.32 -8 12 C-7.01 12.33 -6.02 12.66 -5 13 C-5 14.65 -5 16.3 -5 18 C-5.66 18.33 -6.32 18.66 -7 19 C-6.319375 19.5775 -5.63875 20.155 -4.9375 20.75 C-4.298125 21.4925 -3.65875 22.235 -3 23 C-3.25 25.25 -3.25 25.25 -4 27 C-4.66 27 -5.32 27 -6 27 C-6.28875 27.61875 -6.5775 28.2375 -6.875 28.875 C-8 31 -8 31 -10 33 C-10.99 33 -11.98 33 -13 33 C-13.66 29.7 -14.32 26.4 -15 23 C-16.65 23.33 -18.3 23.66 -20 24 C-21.64931016 19.05206951 -20.13222765 14.47151639 -17.99609375 9.80859375 C-13.78237168 2.47977682 -8.85293963 -2.60380577 0 0 Z " fill="#515151" transform="translate(82,41)"/>
<path d="M0 0 C0.08636719 0.61488281 0.17273437 1.22976563 0.26171875 1.86328125 C0.69196501 4.33818407 1.15413443 6.63242652 2 9 C3.65261839 10.02304948 5.31791365 11.02616054 7 12 C7.1875 15.3125 7.1875 15.3125 7 19 C8.00930411 23.03721645 9.04121466 25.1698575 12 28 C12.12375 28.680625 12.2475 29.36125 12.375 30.0625 C12.58125 30.701875 12.7875 31.34125 13 32 C15.49034386 33.29660434 15.49034386 33.29660434 18 34 C17.49339844 33.23816406 17.49339844 33.23816406 16.9765625 32.4609375 C14.34589186 28.40088512 12.29585335 24.712194 11 20 C12.90625 20.25 12.90625 20.25 15 21 C16.01129668 23.02259336 16.50238027 25.00876942 17.09375 27.1875 C17.8478132 29.21764349 17.8478132 29.21764349 20.09375 29.75 C20.7228125 29.8325 21.351875 29.915 22 30 C21.67 27.69 21.34 25.38 21 23 C21.66 23.33 22.32 23.66 23 24 C23.268125 24.94875 23.53625 25.8975 23.8125 26.875 C25.23985389 30.63119446 26.59255555 31.11693859 30 33 C30 33.99 30 34.98 30 36 C29.01 36 28.02 36 27 36 C27 36.66 27 37.32 27 38 C11.17335208 37.46441124 11.17335208 37.46441124 6 33 C-0.43764662 24.38895986 -3.23031203 15.73996972 -3.0625 5 C-3.05347656 4.236875 -3.04445313 3.47375 -3.03515625 2.6875 C-3.02355469 2.130625 -3.01195313 1.57375 -3 1 C-1 0 -1 0 0 0 Z " fill="#606060" transform="translate(35,291)"/>
<path d="M0 0 C1.98 1.65 3.96 3.3 6 5 C5.66226563 5.83789062 5.32453125 6.67578125 4.9765625 7.5390625 C3.87359639 11.4479744 3.99487167 14.34563966 4.375 18.375 C4.48585938 19.62023437 4.59671875 20.86546875 4.7109375 22.1484375 C4.80632812 23.08945313 4.90171875 24.03046875 5 25 C5.33 25 5.66 25 6 25 C6 27.97 6 30.94 6 34 C6.33 31.69 6.66 29.38 7 27 C7.33 27 7.66 27 8 27 C12.75044883 51.37432675 12.75044883 51.37432675 9 57 C9 54.69 9 52.38 9 50 C8.34 50 7.68 50 7 50 C7 53.63 7 57.26 7 61 C6.67 61 6.34 61 6 61 C5.202163 54.30386804 4.87089147 47.74233419 5 41 C4.34 41 3.68 41 3 41 C3 44.63 3 48.26 3 52 C2.67 52 2.34 52 2 52 C0.67479129 34.64188059 -0.32597187 17.42138548 0 0 Z " fill="#C4C4C4" transform="translate(80,146)"/>
<path d="M0 0 C3.625 0.375 3.625 0.375 7 1 C7 2.32 7 3.64 7 5 C6.01 5.33 5.02 5.66 4 6 C6.31 6.66 8.62 7.32 11 8 C11 8.66 11 9.32 11 10 C9.35 10.33 7.7 10.66 6 11 C6 13.64 6 16.28 6 19 C7.4540625 19.433125 7.4540625 19.433125 8.9375 19.875 C12 21 12 21 13 23 C15.44058982 23.84181926 15.44058982 23.84181926 18.3125 24.5 C21.79834469 25.35633568 24.8499285 26.26409362 28 28 C28 28.66 28 29.32 28 30 C28.66 30 29.32 30 30 30 C32.04169485 32.90548882 33 34.40142046 33 38 C32.236875 37.690625 31.47375 37.38125 30.6875 37.0625 C28.81210323 36.32106407 26.91315348 35.63771783 25 35 C25 34.34 25 33.68 25 33 C23.68 33.66 22.36 34.32 21 35 C20 34 20 34 19.9375 31.4375 C19.958125 30.633125 19.97875 29.82875 20 29 C18.68 28.67 17.36 28.34 16 28 C16.33 27.34 16.66 26.68 17 26 C16.26394531 25.91363281 15.52789062 25.82726562 14.76953125 25.73828125 C13.79371094 25.59777344 12.81789063 25.45726563 11.8125 25.3125 C10.84957031 25.18488281 9.88664062 25.05726562 8.89453125 24.92578125 C5.02780547 23.68905519 3.4211014 22.25850744 1 19 C0.3414382 16.24073648 0.29978454 13.57791848 0.3125 10.75 C0.282716 8.14733654 0.18105759 5.60010569 0 3 C-0.66 2.67 -1.32 2.34 -2 2 C-1.34 1.34 -0.68 0.68 0 0 Z " fill="#5F5F5F" transform="translate(59,76)"/>
<path d="M0 0 C3 1 3 1 5 4 C5.28875 5.0725 5.5775 6.145 5.875 7.25 C6.77171632 10.23905441 7.56253244 12.15322292 9.125 14.75 C11 18 11 18 11 21 C11.66 21 12.32 21 13 21 C13.92017937 29.77578475 13.92017937 29.77578475 11.6640625 32.77734375 C10 34.125 10 34.125 7 36 C6.67 34.68 6.34 33.36 6 32 C3.69 31.67 1.38 31.34 -1 31 C-0.01 27.535 -0.01 27.535 1 24 C1.66 24 2.32 24 3 24 C2.55348122 15.84515697 1.88849677 7.95735532 0 0 Z " fill="#B7B7B7" transform="translate(115,96)"/>
<path d="M0 0 C5.38728334 0.33670521 9.22590529 3.38145366 13 7 C16.21676184 12.39585857 16.64121639 17.85119118 17 24 C14.69 23.34 12.38 22.68 10 22 C10 21.34 10 20.68 10 20 C10.66 20 11.32 20 12 20 C9.53955803 16.66082875 7.69975433 14.7860883 4 13 C3.67 12.01 3.34 11.02 3 10 C0.69 9.67 -1.62 9.34 -4 9 C-4.66 7.35 -5.32 5.7 -6 4 C-4.35 4 -2.7 4 -1 4 C-0.67 2.68 -0.34 1.36 0 0 Z " fill="#212121" transform="translate(107,28)"/>
<path d="M0 0 C1.27947184 6.65941972 0.81115003 10.81546992 -2 17 C-2.66 17 -3.32 17 -4 17 C-4 17.66 -4 18.32 -4 19 C-4.66 19 -5.32 19 -6 19 C-6.33 19.99 -6.66 20.98 -7 22 C-8.98 21.34 -10.96 20.68 -13 20 C-12.67 18.68 -12.34 17.36 -12 16 C-13.65 15.67 -15.3 15.34 -17 15 C-14.44428082 12.44428082 -11.89464966 9.90183264 -9.25 7.4375 C-7.04721487 5.05114944 -6.54780922 4.06773164 -6 1 C-4 0 -4 0 0 0 Z " fill="#DADADA" transform="translate(79,105)"/>
<path d="M0 0 C0 3.63 0 7.26 0 11 C-0.66 11 -1.32 11 -2 11 C-2.7306539 14.98677336 -2.7306539 14.98677336 -3 19 C-1.72780266 21.02977977 -1.72780266 21.02977977 0 22 C-1.49097658 25.7952131 -3.75700849 27.61042731 -7 30 C-7.66 29.67 -8.32 29.34 -9 29 C-7.25 24.125 -7.25 24.125 -5 23 C-5 21.35 -5 19.7 -5 18 C-6.32 17.34 -7.64 16.68 -9 16 C-8.01 15.67 -7.02 15.34 -6 15 C-6.34444881 12.52733235 -6.34444881 12.52733235 -7 10 C-7.66 9.67 -8.32 9.34 -9 9 C-9 8.34 -9 7.68 -9 7 C-9.99 7 -10.98 7 -12 7 C-11.64393309 4.41851492 -11.16671807 3.17954253 -9.375 1.25 C-6.16865877 -0.43754802 -3.56651486 -0.20576047 0 0 Z " fill="#828282" transform="translate(83,44)"/>
<path d="M0 0 C0.00386719 1.12148438 0.00386719 1.12148438 0.0078125 2.265625 C0.12629655 5.28301888 0.32724085 8.05348524 1 11 C3.84730711 13.56680314 3.84730711 13.56680314 7 15 C7.33 15.99 7.66 16.98 8 18 C9.32 17.67 10.64 17.34 12 17 C12.33 17.99 12.66 18.98 13 20 C13.66 20.66 14.32 21.32 15 22 C13.68 22 12.36 22 11 22 C10.67 22.99 10.34 23.98 10 25 C8.35 24.67 6.7 24.34 5 24 C4.97421875 23.37351562 4.9484375 22.74703125 4.921875 22.1015625 C4.86515625 21.28429687 4.8084375 20.46703125 4.75 19.625 C4.70359375 18.81289063 4.6571875 18.00078125 4.609375 17.1640625 C4.21899471 14.833655 4.21899471 14.833655 2.078125 13.8359375 C1.39234375 13.56007813 0.7065625 13.28421875 0 13 C-0.66 12.34 -1.32 11.68 -2 11 C-1.9765625 8.6171875 -1.9765625 8.6171875 -1.625 5.875 C-1.51414062 4.96492188 -1.40328125 4.05484375 -1.2890625 3.1171875 C-1.14597656 2.06917969 -1.14597656 2.06917969 -1 1 C-7.11302838 1.57959166 -7.11302838 1.57959166 -12 5 C-12.33 5.99 -12.66 6.98 -13 8 C-12.01 8 -11.02 8 -10 8 C-10 8.66 -10 9.32 -10 10 C-9.01 10.33 -8.02 10.66 -7 11 C-7 12.65 -7 14.3 -7 16 C-8.98 16.99 -8.98 16.99 -11 18 C-11.33 17.01 -11.66 16.02 -12 15 C-11.34 14.67 -10.68 14.34 -10 14 C-11.98 13.34 -13.96 12.68 -16 12 C-15.83076661 7.00761487 -15.71041167 4.8702543 -12.5 0.9375 C-8.53792399 -1.96158001 -4.54285527 -1.01961863 0 0 Z " fill="#686868" transform="translate(84,43)"/>
<path d="M0 0 C2.97 0.99 5.94 1.98 9 3 C9 3.99 9 4.98 9 6 C7.35 6 5.7 6 4 6 C4.66 7.65 5.32 9.3 6 11 C8.31 11 10.62 11 13 11 C13.226875 11.598125 13.45375 12.19625 13.6875 12.8125 C15.33811133 15.56351888 17.1972081 16.52484637 20 18 C19.01 20.475 19.01 20.475 18 23 C17.01 22.67 16.02 22.34 15 22 C14.67 21.01 14.34 20.02 14 19 C10.33854248 16.25390686 6.30459858 14.99774006 1.98828125 13.6484375 C0 13 0 13 -2 12 C-1.85904936 10.3745692 -1.71207913 8.74965949 -1.5625 7.125 C-1.48128906 6.22007813 -1.40007812 5.31515625 -1.31640625 4.3828125 C-1 2 -1 2 0 0 Z " fill="#131313" transform="translate(97,26)"/>
<path d="M0 0 C0.33 0 0.66 0 1 0 C1.33 2.64 1.66 5.28 2 8 C2.66 8 3.32 8 4 8 C4 21.2 4 34.4 4 48 C0 45 0 45 -0.48101807 42.93086243 C-0.47213562 42.1381041 -0.46325317 41.34534576 -0.45410156 40.52856445 C-0.45379944 39.62785721 -0.45349731 38.72714996 -0.45318604 37.79914856 C-0.43254089 36.83031235 -0.41189575 35.86147614 -0.390625 34.86328125 C-0.38496521 33.86870407 -0.37930542 32.87412689 -0.37347412 31.84941101 C-0.3510672 28.66995289 -0.30086205 25.491618 -0.25 22.3125 C-0.22994062 20.15821939 -0.21168887 18.00392113 -0.1953125 15.84960938 C-0.15118852 10.56602242 -0.08423379 5.28309145 0 0 Z " fill="#A0A0A0" transform="translate(81,179)"/>
<path d="M0 0 C0.66 0 1.32 0 2 0 C1.58581114 6.16998575 0.42748228 11.32431524 -2 17 C-2.25007813 17.64324219 -2.50015625 18.28648437 -2.7578125 18.94921875 C-4.07685844 22.2607183 -5.3077999 24.65895643 -8 27 C-8.66 27.99 -9.32 28.98 -10 30 C-10.18449159 24.64974403 -9.69708223 21.0912467 -8 16 C-7.53826994 12.34167718 -7.24871896 8.67842249 -7 5 C-6.06027344 4.81630859 -6.06027344 4.81630859 -5.1015625 4.62890625 C-2.32631923 3.79839665 -1.63889515 2.30935225 0 0 Z " fill="#D9D9D9" transform="translate(113,145)"/>
<path d="M0 0 C2 2 2 2 2.125 5.125 C2.08375 6.07375 2.0425 7.0225 2 8 C1.34 8 0.68 8 0 8 C0 8.66 0 9.32 0 10 C-0.680625 10.53625 -1.36125 11.0725 -2.0625 11.625 C-4.55553416 13.64064464 -6.38336875 15.51362513 -8.4375 17.9375 C-13.01644465 23.25977982 -16.98844366 27.16364001 -24 29 C-23.34 27.35 -22.68 25.7 -22 24 C-21.34 24 -20.68 24 -20 24 C-19.773125 23.278125 -19.54625 22.55625 -19.3125 21.8125 C-17.20862159 17.30418912 -14.39056698 14.68109403 -9.9375 12.5 C-6.62825971 10.81017517 -5.26047685 8.88405668 -3 6 C-2.01 6 -1.02 6 0 6 C0 4.02 0 2.04 0 0 Z " fill="#0C0C0C" transform="translate(150,237)"/>
<path d="M0 0 C2.33944736 0.28730055 4.6739143 0.61936779 7 1 C7.33 2.65 7.66 4.3 8 6 C6.576875 6.8353125 6.576875 6.8353125 5.125 7.6875 C1.91121213 10.06570302 1.04434882 11.24034426 0 15 C-0.66 15 -1.32 15 -2 15 C-2 15.66 -2 16.32 -2 17 C-2.66 17 -3.32 17 -4 17 C-4 16.34 -4 15.68 -4 15 C-5.98 15.66 -7.96 16.32 -10 17 C-8.61686753 12.96586363 -6.65711698 10.30126655 -4 7 C-2.96958573 5.01549844 -1.96314063 3.01800895 -1 1 C-0.67 0.67 -0.34 0.34 0 0 Z " fill="#E0E0E0" transform="translate(114,127)"/>
<path d="M0 0 C0.33 0.99 0.66 1.98 1 3 C-0.29486821 4.69672386 -1.63360658 6.3603279 -3 8 C-3.67349161 9.66392045 -4.3409159 11.33032028 -5 13 C-5.72316406 13.62841797 -5.72316406 13.62841797 -6.4609375 14.26953125 C-8.60003173 16.67465497 -8.89781247 18.93656951 -9.5625 22.0625 C-10.79166667 27.79166667 -10.79166667 27.79166667 -13 30 C-16.828125 21.11875 -16.828125 21.11875 -15 16 C-13.0625 14.875 -13.0625 14.875 -11 14 C-9.89163577 12.11683841 -9.89163577 12.11683841 -9 10 C-7.5 7.75 -7.5 7.75 -6 6 C-5.34 6 -4.68 6 -4 6 C-3.71125 5.195625 -3.4225 4.39125 -3.125 3.5625 C-2 1 -2 1 0 0 Z " fill="#808080" transform="translate(108,134)"/>
<path d="M0 0 C2.50298434 2.93828597 3.46930939 5.17902761 4 9 C4.66 9 5.32 9 6 9 C6.67408308 10.26691507 7.33900497 11.53870749 8 12.8125 C8.556875 13.87404297 8.556875 13.87404297 9.125 14.95703125 C10 17 10 17 10 20 C10.66 20 11.32 20 12 20 C12.33 19.34 12.66 18.68 13 18 C13.66 20.31 14.32 22.62 15 25 C15.66 24.67 16.32 24.34 17 24 C16.86722656 24.76441406 16.73445313 25.52882812 16.59765625 26.31640625 C15.18497525 34.88529609 14.45531584 43.33701706 14 52 C13.67 52 13.34 52 13 52 C12.99589111 51.4016333 12.99178223 50.8032666 12.98754883 50.18676758 C12.81465395 35.78393243 12.30297729 22.78377123 3 11 C2.4225 10.54625 1.845 10.0925 1.25 9.625 C-0.93567179 6.78362668 -0.17083569 3.47365897 0 0 Z " fill="#B7B7B7" transform="translate(80,138)"/>
<path d="M0 0 C0.08636719 0.61488281 0.17273437 1.22976563 0.26171875 1.86328125 C1.07491196 7.20753611 1.07491196 7.20753611 4.625 11.0625 C5.40875 11.371875 6.1925 11.68125 7 12 C6.34 15.3 5.68 18.6 5 22 C4.34 22 3.68 22 3 22 C3 22.66 3 23.32 3 24 C2.34 24 1.68 24 1 24 C-3.24896642 16.61049318 -3.17244237 9.27723359 -3 1 C-1 0 -1 0 0 0 Z " fill="#565656" transform="translate(35,291)"/>
<path d="M0 0 C0.99 0 1.98 0 3 0 C3.48229332 2.49943204 3.96089426 4.99948243 4.4375 7.5 C4.57220703 8.19609375 4.70691406 8.8921875 4.84570312 9.609375 C5.75371019 14.39302198 6.43896713 19.1631341 7 24 C4.625 23.75 4.625 23.75 2 23 C-0.09862498 20.10189884 0 18.71621139 0 15 C-0.66 15 -1.32 15 -2 15 C-1.835 14.484375 -1.67 13.96875 -1.5 13.4375 C-0.88278258 10.84327403 -0.88278258 10.84327403 -1 7.5 C-1 4.68482774 -0.84534195 2.6416936 0 0 Z " fill="#8E8E8E" transform="translate(50,297)"/>
<path d="M0 0 C0.027193 1.58323688 0.04648306 3.16661062 0.0625 4.75 C0.07410156 5.63171875 0.08570312 6.5134375 0.09765625 7.421875 C0.00826198 9.7818838 -0.33087179 11.74498524 -1 14 C-2.36125 13.9690625 -2.36125 13.9690625 -3.75 13.9375 C-6.4419763 13.98926877 -8.43767551 14.33569365 -11 15 C-12 14 -12 14 -12.4375 11.875 C-11.77681816 7.53337651 -9.09685931 4.99137018 -6 2 C-3 0 -3 0 0 0 Z " fill="#8F8F8F" transform="translate(67,63)"/>
<path d="M0 0 C0.33 0 0.66 0 1 0 C5.75044883 24.37432675 5.75044883 24.37432675 2 30 C2 27.69 2 25.38 2 23 C1.34 23 0.68 23 0 23 C0 26.63 0 30.26 0 34 C-0.33 34 -0.66 34 -1 34 C-1.83324695 27.81016554 -2.10827661 21.67532418 -2.125 15.4375 C-2.12951172 14.72271484 -2.13402344 14.00792969 -2.13867188 13.27148438 C-2.12377977 8.12377977 -2.12377977 8.12377977 -1 7 C-0.63239269 4.67182036 -0.29758419 2.3381615 0 0 Z " fill="#CACACA" transform="translate(87,173)"/>
<path d="M0 0 C3.4340702 1.38517117 4.70022022 2.65444364 6.25 6 C6.75273438 7.051875 6.75273438 7.051875 7.265625 8.125 C8 10 8 10 8 12 C9.65 11.67 11.3 11.34 13 11 C13.33591896 13.27045229 13.66865065 15.54137633 14 17.8125 C14.185625 19.07707031 14.37125 20.34164062 14.5625 21.64453125 C15 25 15 25 15 28 C14.34 28 13.68 28 13 28 C12.32880451 26.5437455 11.66318193 25.08492133 11 23.625 C10.62875 22.81289062 10.2575 22.00078125 9.875 21.1640625 C9 19 9 19 9 17 C8.34 17 7.68 17 7 17 C5.82592979 14.73272667 4.66060261 12.46165376 3.5 10.1875 C3.16613281 9.54490234 2.83226563 8.90230469 2.48828125 8.24023438 C0.99760916 5.30452301 0 3.33873483 0 0 Z " fill="#DCDCDC" transform="translate(77,130)"/>
<path d="M0 0 C0.33 0 0.66 0 1 0 C1.33 1.65 1.66 3.3 2 5 C2.99 4.67 3.98 4.34 5 4 C3.36827586 9.64827586 3.36827586 9.64827586 1.609375 11.328125 C-1.289023 14.33908215 -2.65699957 18.33386308 -4.40234375 22.08984375 C-5.97306671 24.95094058 -7.58316287 26.8337205 -10 29 C-11.98 27.68 -13.96 26.36 -16 25 C-15.34 24.67 -14.68 24.34 -14 24 C-13.34 24.33 -12.68 24.66 -12 25 C-11.67 24.01 -11.34 23.02 -11 22 C-10.01 22 -9.02 22 -8 22 C-7.87625 21.4225 -7.7525 20.845 -7.625 20.25 C-6.99351176 17.97664233 -6.11141809 16.0746471 -5 14 C-4.01 14 -3.02 14 -2 14 C-2.04125 12.80375 -2.0825 11.6075 -2.125 10.375 C-2.13851708 6.57670047 -1.42009753 3.55024382 0 0 Z " fill="#969696" transform="translate(105,206)"/>
<path d="M0 0 C0.33 0 0.66 0 1 0 C1.07643488 7.50725743 1.12876094 15.01441346 1.16479492 22.52197266 C1.17982636 25.07279206 1.20025705 27.62358585 1.22631836 30.17431641 C1.26294972 33.85325463 1.27978346 37.53184935 1.29296875 41.2109375 C1.30845261 42.34050873 1.32393646 43.47007996 1.33988953 44.63388062 C1.34132194 51.46342353 0.75230933 57.67527473 -2 64 C-2.99 64.99 -2.99 64.99 -4 66 C-3.88361873 63.87451055 -3.75637282 61.74961554 -3.625 59.625 C-3.55539063 58.44164062 -3.48578125 57.25828125 -3.4140625 56.0390625 C-3.17512617 53.07713968 -2.65003824 50.28107218 -2 47.3828125 C-0.94020741 42.1713559 -0.65663042 37.14246743 -0.5859375 31.8359375 C-0.56657135 30.91785309 -0.5472052 29.99976868 -0.5272522 29.05386353 C-0.46812855 26.16099944 -0.42134357 23.26809409 -0.375 20.375 C-0.33675817 18.39711938 -0.29770297 16.41925431 -0.2578125 14.44140625 C-0.16248356 9.62773252 -0.07820891 4.81398107 0 0 Z " fill="#717171" transform="translate(121,133)"/>
<path d="M0 0 C1.04218885 3.38711375 1 6.47649693 1 10 C1.33 10.33 1.66 10.66 2 11 C2.71842736 17.3138712 1.56996402 22.28125124 -1 28 C-1.56270172 29.33324822 -2.1252131 30.66657678 -2.6875 32 C-3.120625 32.99 -3.55375 33.98 -4 35 C-4.33 35 -4.66 35 -5 35 C-5.32509745 27.9923439 -5.02246354 22.16659625 -2.73046875 15.52734375 C-1.65477381 11.80555432 -1.44087418 8.10417675 -1.2109375 4.25 C-1 2 -1 2 0 0 Z " fill="#CDCDCD" transform="translate(102,175)"/>
<path d="M0 0 C0.66 0 1.32 0 2 0 C2.0825 1.2375 2.165 2.475 2.25 3.75 C2.74512907 7.84737243 3.98829759 9.17082501 7 12 C8.25 15.75 8.25 15.75 9 19 C10.65 19.33 12.3 19.66 14 20 C9.69876308 21.46633077 7.12793166 20.38792507 3.1328125 18.515625 C-0.48940127 15.94159763 -2.0283381 12.26543106 -3 8 C-2.67 7.34 -2.34 6.68 -2 6 C-1.34 6 -0.68 6 0 6 C0 4.02 0 2.04 0 0 Z " fill="#616161" transform="translate(40,307)"/>
<path d="M0 0 C1.87498437 2.81247655 2.95940338 5.22357209 4.125 8.375 C4.47820313 9.31085938 4.83140625 10.24671875 5.1953125 11.2109375 C5.99013202 13.96579739 6.15533287 16.15223068 6 19 C3.6875 18.8125 3.6875 18.8125 1 18 C-0.8125 15.4375 -0.8125 15.4375 -2 13 C-2.66 13.66 -3.32 14.32 -4 15 C-4 11.7 -4 8.4 -4 5 C-1.525 6.485 -1.525 6.485 1 8 C0.67 5.36 0.34 2.72 0 0 Z " fill="#6A6A6A" transform="translate(59,298)"/>
<path d="M0 0 C2 1 2 1 3.125 3.6875 C4.71852949 9.61343779 4.15174116 15.92192359 4 22 C3.34 22 2.68 22 2 22 C1.67 23.65 1.34 25.3 1 27 C0.34 27 -0.32 27 -1 27 C-1.12224626 17.9401941 -0.83930594 9.02253886 0 0 Z " fill="#6F6F6F" transform="translate(114,98)"/>
<path d="M0 0 C0.33 0 0.66 0 1 0 C-0.0949506 18.12431394 -0.0949506 18.12431394 -2 24 C-2.99 24.66 -3.98 25.32 -5 26 C-5 20.39 -5 14.78 -5 9 C-4.34 9 -3.68 9 -3 9 C-2.87625 7.88625 -2.7525 6.7725 -2.625 5.625 C-2 2 -2 2 0 0 Z " fill="#9B9B9B" transform="translate(118,179)"/>
<path d="M0 0 C0.99 0 1.98 0 3 0 C3.875 3.1875 3.875 3.1875 4 7 C2.21974097 9.21299892 0.39362281 10.38796831 -2 12 C-2.33 10.68 -2.66 9.36 -3 8 C-5.31 7.67 -7.62 7.34 -10 7 C-9.67 6.01 -9.34 5.02 -9 4 C-8.34 4 -7.68 4 -7 4 C-6.67 3.01 -6.34 2.02 -6 1 C-3.03 1.495 -3.03 1.495 0 2 C0 1.34 0 0.68 0 0 Z " fill="#C0C0C0" transform="translate(124,120)"/>
<path d="M0 0 C-0.33 0.99 -0.66 1.98 -1 3 C-1.66 3 -2.32 3 -3 3 C-3.391875 4.051875 -3.78375 5.10375 -4.1875 6.1875 C-5.76126854 9.94033267 -8.13095686 12.13095686 -11 15 C-11 16.32 -11 17.64 -11 19 C-9.35 19 -7.7 19 -6 19 C-6.33 19.99 -6.66 20.98 -7 22 C-8.98 21.34 -10.96 20.68 -13 20 C-12.67 18.68 -12.34 17.36 -12 16 C-13.65 15.67 -15.3 15.34 -17 15 C-14.44428082 12.44428082 -11.89464966 9.90183264 -9.25 7.4375 C-7.04721487 5.05114944 -6.54780922 4.06773164 -6 1 C-4 0 -4 0 0 0 Z " fill="#9D9D9D" transform="translate(79,105)"/>
<path d="M0 0 C0.66 0 1.32 0 2 0 C3.50606515 3.01213029 3.12160331 6.11282622 3.09765625 9.4140625 C3.09553383 10.50852188 3.09553383 10.50852188 3.09336853 11.62509155 C3.08776531 13.95843585 3.07521235 16.29168464 3.0625 18.625 C3.05748541 20.20572778 3.05292243 21.78645707 3.04882812 23.3671875 C3.03779484 27.24482854 3.02052811 31.12239807 3 35 C2.67 35 2.34 35 2 35 C0.23703549 27.02094584 -0.25485556 19.46842799 -0.125 11.3125 C-0.11146484 9.66991211 -0.11146484 9.66991211 -0.09765625 7.99414062 C-0.07438154 5.32918646 -0.04169135 2.66471866 0 0 Z " fill="#DCDCDC" transform="translate(89,163)"/>
<path d="M0 0 C0.33 0.66 0.66 1.32 1 2 C0.01453001 3.67529898 -0.98940479 5.33973644 -2 7 C-2.81155373 9.02690493 -3.54308607 11.06862282 -4.25390625 13.1328125 C-5 15 -5 15 -7 18 C-7.38499891 19.65549531 -7.72793135 21.3222433 -8 23 C-8.99 22.34 -9.98 21.68 -11 21 C-10.67 17.7 -10.34 14.4 -10 11 C-9.34 11 -8.68 11 -8 11 C-7.73445313 10.41734375 -7.46890625 9.8346875 -7.1953125 9.234375 C-5.96697004 6.93825772 -4.59685061 5.19643982 -2.875 3.25 C-2.33617188 2.63640625 -1.79734375 2.0228125 -1.2421875 1.390625 C-0.62730469 0.70226562 -0.62730469 0.70226562 0 0 Z " fill="#BEBEBE" transform="translate(113,164)"/>
<path d="M0 0 C2.92879371 0.62759865 5.36095629 1.58622659 8 3 C7.54554036 4.41791408 7.08625056 5.83428046 6.625 7.25 C6.36976563 8.03890625 6.11453125 8.8278125 5.8515625 9.640625 C5.04826333 11.86627958 4.10288338 13.90931672 3 16 C1 15 1 15 0 12 C-0.068991 9.93854893 -0.08467727 7.87498599 -0.0625 5.8125 C-0.05347656 4.72582031 -0.04445312 3.63914062 -0.03515625 2.51953125 C-0.02355469 1.68808594 -0.01195312 0.85664063 0 0 Z " fill="#ADADAD" transform="translate(158,276)"/>
<path d="M0 0 C0.763125 0.309375 1.52625 0.61875 2.3125 0.9375 C4.18789677 1.67893593 6.08684652 2.36228217 8 3 C8 3.66 8 4.32 8 5 C8.66 5 9.32 5 10 5 C12.04169485 7.90548882 13 9.40142046 13 13 C12.236875 12.690625 11.47375 12.38125 10.6875 12.0625 C8.81210323 11.32106407 6.91315348 10.63771783 5 10 C5 9.34 5 8.68 5 8 C3.02 8.99 3.02 8.99 1 10 C0 9 0 9 -0.0625 6.4375 C-0.041875 5.633125 -0.02125 4.82875 0 4 C0.66 3.67 1.32 3.34 2 3 C1.34 2.01 0.68 1.02 0 0 Z " fill="#686868" transform="translate(79,101)"/>
<path d="M0 0 C0.99 0.33 1.98 0.66 3 1 C3.33 2.65 3.66 4.3 4 6 C3.01 6.33 2.02 6.66 1 7 C-0.09166275 8.93330603 -0.09166275 8.93330603 -1 11 C-1.66 11.66 -2.32 12.32 -3 13 C-3.99 13 -4.98 13 -6 13 C-6.33 9.7 -6.66 6.4 -7 3 C-6.01 3.495 -6.01 3.495 -5 4 C-5 4.99 -5 5.98 -5 7 C-4.34 7 -3.68 7 -3 7 C-2.814375 5.5459375 -2.814375 5.5459375 -2.625 4.0625 C-2.41875 3.051875 -2.2125 2.04125 -2 1 C-1.34 0.67 -0.68 0.34 0 0 Z " fill="#4D4D4D" transform="translate(75,61)"/>
<path d="M0 0 C0.96070434 2.88211302 1.10581883 4.69850044 1.0625 7.6875 C1.05347656 8.49574219 1.04445313 9.30398438 1.03515625 10.13671875 C1.02355469 10.75160156 1.01195312 11.36648438 1 12 C-3.5862069 10.55172414 -3.5862069 10.55172414 -5.3125 8.25 C-6.17450101 5.42890579 -6.13329111 2.93240449 -6 0 C-2.25 -1.125 -2.25 -1.125 0 0 Z " fill="#747474" transform="translate(41,291)"/>
<path d="M0 0 C0.33 0.66 0.66 1.32 1 2 C0.01 2 -0.98 2 -2 2 C-1.01 3.32 -0.02 4.64 1 6 C0.34 6 -0.32 6 -1 6 C-1.33 7.98 -1.66 9.96 -2 12 C-2.66 12 -3.32 12 -4 12 C-5.4606285 9.35261084 -6 8.10551666 -6 5 C-7.32 5 -8.64 5 -10 5 C-9.67 3.68 -9.34 2.36 -9 1 C-5.92677456 0.08941469 -3.19902639 -0.08886184 0 0 Z " fill="#404040" transform="translate(74,56)"/>
<path d="M0 0 C0.33 0 0.66 0 1 0 C1.05382106 2.62527189 1.09358313 5.24944713 1.125 7.875 C1.14175781 8.62136719 1.15851563 9.36773437 1.17578125 10.13671875 C1.1933959 12.09194461 1.10320189 14.04742021 1 16 C0.34 16.66 -0.32 17.32 -1 18 C-1.33 18 -1.66 18 -2 18 C-2.12117188 18.63808594 -2.24234375 19.27617187 -2.3671875 19.93359375 C-2.53476563 20.75988281 -2.70234375 21.58617187 -2.875 22.4375 C-3.03742188 23.26121094 -3.19984375 24.08492187 -3.3671875 24.93359375 C-3.57601562 25.61550781 -3.78484375 26.29742187 -4 27 C-4.66 27.33 -5.32 27.66 -6 28 C-4.81023377 20.63357505 -3.50718018 13.30792409 -2 6 C-1.83628906 5.10152344 -1.67257813 4.20304688 -1.50390625 3.27734375 C-1 1 -1 1 0 0 Z " fill="#B1B1B1" transform="translate(120,133)"/>
<path d="M0 0 C7.57657022 -0.37261821 7.57657022 -0.37261821 9.5625 1.375 C10.036875 1.91125 10.51125 2.4475 11 3 C12.155 3.33 13.31 3.66 14.5 4 C17.7618685 4.93196243 18.98734181 5.39538352 21 8 C20.34 8.66 19.68 9.32 19 10 C16.375 9.625 16.375 9.625 14 9 C14.33 8.01 14.66 7.02 15 6 C14.25234375 5.90203125 13.5046875 5.8040625 12.734375 5.703125 C4.59005146 4.46655232 4.59005146 4.46655232 1.3125 1.875 C0.879375 1.25625 0.44625 0.6375 0 0 Z " fill="#545454" transform="translate(61,96)"/>
<path d="M0 0 C0.99 0.33 1.98 0.66 3 1 C3.33 1.99 3.66 2.98 4 4 C5.32 3.67 6.64 3.34 8 3 C8.33 3.99 8.66 4.98 9 6 C9.66 6.66 10.32 7.32 11 8 C9.68 8 8.36 8 7 8 C6.67 8.99 6.34 9.98 6 11 C4.35 10.67 2.7 10.34 1 10 C0.67 6.7 0.34 3.4 0 0 Z " fill="#4A4A4A" transform="translate(88,57)"/>
<path d="M0 0 C0 1.32 0 2.64 0 4 C-1.98 4.99 -1.98 4.99 -4 6 C-4 5.34 -4 4.68 -4 4 C-4.93972656 4.05220703 -4.93972656 4.05220703 -5.8984375 4.10546875 C-6.71570313 4.13253906 -7.53296875 4.15960938 -8.375 4.1875 C-9.18710938 4.22230469 -9.99921875 4.25710937 -10.8359375 4.29296875 C-11.55007812 4.19628906 -12.26421875 4.09960938 -13 4 C-13.66 3.01 -14.32 2.02 -15 1 C-9.69276568 -0.42705634 -5.46108889 -1.4002792 0 0 Z " fill="#151515" transform="translate(169,203)"/>
<path d="M0 0 C0.33 0 0.66 0 1 0 C1.13277344 0.80824219 1.26554687 1.61648437 1.40234375 2.44921875 C1.57894531 3.51785156 1.75554687 4.58648437 1.9375 5.6875 C2.11152344 6.74324219 2.28554687 7.79898438 2.46484375 8.88671875 C2.93167121 11.60249604 3.44422616 14.30124235 4 17 C4.99 17.33 5.98 17.66 7 18 C6.67 20.31 6.34 22.62 6 25 C5.01 25 4.02 25 3 25 C3.33 23.02 3.66 21.04 4 19 C3.01 19 2.02 19 1 19 C-0.00926479 14.84373632 -0.10239579 10.95634906 -0.0625 6.6875 C-0.05347656 5.43324219 -0.04445313 4.17898437 -0.03515625 2.88671875 C-0.01775391 1.45779297 -0.01775391 1.45779297 0 0 Z " fill="#6D6D6D" transform="translate(109,70)"/>
<path d="M0 0 C1.32 0.33 2.64 0.66 4 1 C3 4 3 4 1.625 5.3125 C-0.56549585 7.58724569 -1.67301478 10.15646023 -3 13 C-3.66 13 -4.32 13 -5 13 C-5 13.66 -5 14.32 -5 15 C-6.32 15.33 -7.64 15.66 -9 16 C-7.61686753 11.96586363 -5.65711698 9.30126655 -3 6 C-1.95548562 4.02288349 -0.94301862 2.02749004 0 0 Z " fill="#BEBEBE" transform="translate(113,128)"/>
<path d="M0 0 C0.33 0 0.66 0 1 0 C1.38219895 15.11809191 1.38219895 15.11809191 -1 22 C-1.66 22.66 -2.32 23.32 -3 24 C-2.55348122 15.84515697 -1.88849677 7.95735532 0 0 Z " fill="#7C7C7C" transform="translate(120,175)"/>
<path d="M0 0 C1.32 0.66 2.64 1.32 4 2 C2.25 5.875 2.25 5.875 0 7 C-0.65213292 9.02463255 -0.65213292 9.02463255 -1 11 C-1.66 11 -2.32 11 -3 11 C-3 11.66 -3 12.32 -3 13 C-3.66 13 -4.32 13 -5 13 C-4.54177532 9.53058454 -4.10868317 6.32604951 -3 3 C-2.01 3 -1.02 3 0 3 C0 2.01 0 1.02 0 0 Z " fill="#727272" transform="translate(101,67)"/>
<path d="M0 0 C-1.44930671 3.59584747 -3.22752078 5.18832656 -6.4375 7.3125 C-7.21996094 7.84488281 -8.00242188 8.37726563 -8.80859375 8.92578125 C-11 10 -11 10 -14 9 C-12.54405245 7.68485396 -11.08516421 6.37296283 -9.625 5.0625 C-8.81289062 4.33160156 -8.00078125 3.60070312 -7.1640625 2.84765625 C-4.4348356 0.51746794 -3.62580788 0 0 0 Z " fill="#262626" transform="translate(144,256)"/>
<path d="M0 0 C0.66 0 1.32 0 2 0 C2 2.64 2 5.28 2 8 C3.65 8.33 5.3 8.66 7 9 C6.67 10.65 6.34 12.3 6 14 C3.13275314 13.42655063 2.1385485 13.1385485 0 11 C-0.1953125 8.3984375 -0.1953125 8.3984375 -0.125 5.375 C-0.10695313 4.37210938 -0.08890625 3.36921875 -0.0703125 2.3359375 C-0.04710938 1.56507812 -0.02390625 0.79421875 0 0 Z " fill="#363636" transform="translate(84,43)"/>
<path d="M0 0 C2.97 0.495 2.97 0.495 6 1 C6.33 3.64 6.66 6.28 7 9 C5.68 8.34 4.36 7.68 3 7 C2.67 8.65 2.34 10.3 2 12 C1.67 12 1.34 12 1 12 C0.67 8.04 0.34 4.08 0 0 Z " fill="#828282" transform="translate(53,297)"/>
<path d="M0 0 C1.32 0.33 2.64 0.66 4 1 C3.67 1.99 3.34 2.98 3 4 C3.99 4.99 4.98 5.98 6 7 C-0.435 7.495 -0.435 7.495 -7 8 C-6.34 7.01 -5.68 6.02 -5 5 C-4.34 5 -3.68 5 -3 5 C-3 4.01 -3 3.02 -3 2 C-2.01 2 -1.02 2 0 2 C0 1.34 0 0.68 0 0 Z " fill="#1A1A1A" transform="translate(173,205)"/>
<path d="M0 0 C1.30062431 3.81516464 0.89369853 7.27561763 0.5625 11.25 C0.46066406 12.51328125 0.35882813 13.7765625 0.25390625 15.078125 C0.17011719 16.04234375 0.08632812 17.0065625 0 18 C0.66 18.33 1.32 18.66 2 19 C0.7260411 21.03833424 -0.61061923 23.03852126 -2 25 C-2.66 25 -3.32 25 -4 25 C-3.67 24.46890625 -3.34 23.9378125 -3 23.390625 C-1.72700211 20.34736442 -1.87534414 18.03779821 -2 14.75 C-2.09651517 9.39944004 -1.59693514 5.09023076 0 0 Z " fill="#828282" transform="translate(113,107)"/>
<path d="M0 0 C0.66 0 1.32 0 2 0 C2.144375 1.2375 2.28875 2.475 2.4375 3.75 C2.70831329 6.04989199 2.99717326 7.99175533 3.75 10.1875 C4.15038555 13.09029526 2.65032096 14.71494021 1 17 C0.67 17 0.34 17 0 17 C0 11.39 0 5.78 0 0 Z " fill="#8F8F8F" transform="translate(113,188)"/>
<path d="M0 0 C0.33 3.3 0.66 6.6 1 10 C-1.31 9.34 -3.62 8.68 -6 8 C-6 7.34 -6 6.68 -6 6 C-5.34 6 -4.68 6 -4 6 C-4.33 5.01 -4.66 4.02 -5 3 C-2.25 0 -2.25 0 0 0 Z " fill="#2C2C2C" transform="translate(123,42)"/>
<path d="M0 0 C3.625 0.375 3.625 0.375 7 1 C7 2.32 7 3.64 7 5 C6.01 5.33 5.02 5.66 4 6 C4.99 6.66 5.98 7.32 7 8 C5.02 8 3.04 8 1 8 C1 6.35 1 4.7 1 3 C0.01 2.67 -0.98 2.34 -2 2 C-1.34 1.34 -0.68 0.68 0 0 Z " fill="#676767" transform="translate(59,76)"/>
<path d="M0 0 C3.36840664 1.372838 4.6920202 2.59829645 6.25 5.875 C6.58515625 6.55304688 6.9203125 7.23109375 7.265625 7.9296875 C8 10 8 10 8 14 C7.34 14 6.68 14 6 14 C4.9923048 12.2335343 3.99408286 10.46166177 3 8.6875 C2.443125 7.70136719 1.88625 6.71523437 1.3125 5.69921875 C0 3 0 3 0 0 Z " fill="#E5E5E5" transform="translate(77,130)"/>
<path d="M0 0 C0.99 0.33 1.98 0.66 3 1 C2.42434163 4.33881853 1.46131758 5.72801455 -1 8 C-1.495 8.721875 -1.99 9.44375 -2.5 10.1875 C-3.2425 11.0846875 -3.2425 11.0846875 -4 12 C-4.99 12 -5.98 12 -7 12 C-7.33 12.66 -7.66 13.32 -8 14 C-8 13.01 -8 12.02 -8 11 C-7.236875 10.4225 -6.47375 9.845 -5.6875 9.25 C-2.27944062 6.39674098 -1.50812337 4.12749553 0 0 Z " fill="#C4C4C4" transform="translate(76,107)"/>
<path d="M0 0 C3.67230705 3.07999946 4.56802365 5.2482602 5 10 C2.0625 9.25 2.0625 9.25 -1 8 C-2 6.125 -2 6.125 -2 4 C-1.0625 1.75 -1.0625 1.75 0 0 Z " fill="#696969" transform="translate(54,288)"/>
<path d="M0 0 C2.31 0.33 4.62 0.66 7 1 C7.33 2.65 7.66 4.3 8 6 C7.2575 6.12375 6.515 6.2475 5.75 6.375 C3.19858515 6.95486701 1.2732427 7.73708739 -1 9 C-1 6 -1 6 1 3.8125 C1.66 3.214375 2.32 2.61625 3 2 C2.01 2.33 1.02 2.66 0 3 C0 2.01 0 1.02 0 0 Z " fill="#D3D3D3" transform="translate(114,127)"/>
<path d="M0 0 C0.99 0 1.98 0 3 0 C3 0.99 3 1.98 3 3 C3.66 3 4.32 3 5 3 C5 4.65 5 6.3 5 8 C3.35 7.67 1.7 7.34 0 7 C-0.38133299 5.0085944 -0.71325582 3.00720923 -1 1 C-0.67 0.67 -0.34 0.34 0 0 Z " fill="#8B8B8B" transform="translate(60,309)"/>
<path d="M0 0 C0.33 0 0.66 0 1 0 C0.50659631 6.41424802 0.50659631 6.41424802 -2 9.3125 C-2.66 9.869375 -3.32 10.42625 -4 11 C-4.33 11.66 -4.66 12.32 -5 13 C-5.66 12.67 -6.32 12.34 -7 12 C-6.21331482 10.37258256 -5.4204759 8.74813869 -4.625 7.125 C-4.18414062 6.22007812 -3.74328125 5.31515625 -3.2890625 4.3828125 C-2 2 -2 2 0 0 Z " fill="#181818" transform="translate(112,209)"/>
<path d="M0 0 C0.99 0.33 1.98 0.66 3 1 C2.21625 1.2475 1.4325 1.495 0.625 1.75 C-2.32317108 3.15389099 -2.9024777 4.00675737 -4 7 C-4.66 7 -5.32 7 -6 7 C-6 7.66 -6 8.32 -6 9 C-6.66 8.67 -7.32 8.34 -8 8 C-3.375 2.25 -3.375 2.25 0 0 Z M-9 9 C-8.01 9.495 -8.01 9.495 -7 10 C-6.67 10.99 -6.34 11.98 -6 13 C-5.34 13.66 -4.68 14.32 -4 15 C-5.65 14.67 -7.3 14.34 -9 14 C-9 12.35 -9 10.7 -9 9 Z " fill="#787878" transform="translate(64,63)"/>
<path d="M0 0 C0.66 0.33 1.32 0.66 2 1 C1.67 2.98 1.34 4.96 1 7 C0.34 7 -0.32 7 -1 7 C-1 7.66 -1 8.32 -1 9 C-1.66 9 -2.32 9 -3 9 C-3.66 7.02 -4.32 5.04 -5 3 C-2.625 1.4375 -2.625 1.4375 0 0 Z " fill="#4E4E4E" transform="translate(39,306)"/>
<path d="M0 0 C0.33 0.66 0.66 1.32 1 2 C1.66 2 2.32 2 3 2 C2.71125 2.680625 2.4225 3.36125 2.125 4.0625 C0.90807781 7.07520781 0.90807781 7.07520781 0.0625 10.625 C-1 14 -1 14 -4 17 C-3.34 13.04 -2.68 9.08 -2 5 C-1.34 5 -0.68 5 0 5 C0 3.35 0 1.7 0 0 Z " fill="#B1B1B1" transform="translate(99,211)"/>
<path d="M0 0 C0.66 0 1.32 0 2 0 C2.74926071 3.66305234 3.2380014 6.42355152 2 10 C1.34 10 0.68 10 0 10 C-0.33 10.66 -0.66 11.32 -1 12 C-1.02687279 10.18757948 -1.04633715 8.37504767 -1.0625 6.5625 C-1.07410156 5.55316406 -1.08570312 4.54382813 -1.09765625 3.50390625 C-1 1 -1 1 0 0 Z " fill="#CCCCCC" transform="translate(116,136)"/>
<path d="M0 0 C0.33 0 0.66 0 1 0 C1.33 1.65 1.66 3.3 2 5 C2.99 4.67 3.98 4.34 5 4 C4.34 5.98 3.68 7.96 3 10 C1.35 9.67 -0.3 9.34 -2 9 C-1.125 1.125 -1.125 1.125 0 0 Z " fill="#878787" transform="translate(105,206)"/>
<path d="M0 0 C2.50298434 2.93828597 3.46930939 5.17902761 4 9 C4.66 9 5.32 9 6 9 C5.67 10.32 5.34 11.64 5 13 C0.17970402 9.14376321 0.17970402 9.14376321 -0.33203125 5.88671875 C-0.3145776 3.92143786 -0.16596091 1.95833873 0 0 Z " fill="#A3A3A3" transform="translate(80,138)"/>
<path d="M0 0 C0.33 0 0.66 0 1 0 C0.67 2.97 0.34 5.94 0 9 C-0.66 9 -1.32 9 -2 9 C-2 9.66 -2 10.32 -2 11 C-2.99 11 -3.98 11 -5 11 C-4.54917531 9.53932801 -4.08906463 8.08151968 -3.625 6.625 C-3.36976562 5.81289062 -3.11453125 5.00078125 -2.8515625 4.1640625 C-2 2 -2 2 0 0 Z " fill="#BEBEBE" transform="translate(101,202)"/>
<path d="M0 0 C0.33 0 0.66 0 1 0 C1 7.26 1 14.52 1 22 C0.67 22 0.34 22 0 22 C-2.24817532 14.18326735 -1.76273292 7.89161968 0 0 Z " fill="#2E2E2E" transform="translate(80,191)"/>
<path d="M0 0 C0.33 0.66 0.66 1.32 1 2 C1.639375 2.28875 2.27875 2.5775 2.9375 2.875 C5.42001234 4.22909764 5.96871397 5.42178493 7 8 C4.03 7.505 4.03 7.505 1 7 C0.34 5.02 -0.32 3.04 -1 1 C-0.67 0.67 -0.34 0.34 0 0 Z " fill="#2E2E2E" transform="translate(111,35)"/>
<path d="M0 0 C0.99 0.33 1.98 0.66 3 1 C0.525 6.94 0.525 6.94 -2 13 C-2.33 13 -2.66 13 -3 13 C-4.125 7.25 -4.125 7.25 -3 5 C-2.01 5 -1.02 5 0 5 C0 3.35 0 1.7 0 0 Z " fill="#8F8F8F" transform="translate(103,215)"/>
<path d="M0 0 C0.99 0.33 1.98 0.66 3 1 C2.34 1 1.68 1 1 1 C1.4979837 4.73487777 1.87491756 6.81237635 4 10 C3.34 10 2.68 10 2 10 C2.66 11.65 3.32 13.3 4 15 C3.01 15 2.02 15 1 15 C-0.09506492 11.71480525 -0.09960608 9.26336585 -0.0625 5.8125 C-0.05347656 4.72582031 -0.04445312 3.63914062 -0.03515625 2.51953125 C-0.02355469 1.68808594 -0.01195312 0.85664063 0 0 Z " fill="#777777" transform="translate(158,276)"/>
<path d="M0 0 C0.66 0 1.32 0 2 0 C2.33 1.98 2.66 3.96 3 6 C1.68 6.99 0.36 7.98 -1 9 C-1.80967438 6.08517222 -2.21845993 4.53886783 -1.0625 1.6875 C-0.711875 1.130625 -0.36125 0.57375 0 0 Z " fill="#353535" transform="translate(166,125)"/>
<path d="M0 0 C2.64 0 5.28 0 8 0 C7.42655063 2.86724686 7.1385485 3.8614515 5 6 C3.5 4.625 3.5 4.625 2 3 C2 2.34 2 1.68 2 1 C1.34 0.67 0.68 0.34 0 0 Z " fill="#757575" transform="translate(46,288)"/>
<path d="M0 0 C0.66 0 1.32 0 2 0 C2 2.97 2 5.94 2 9 C0.35 8.01 -1.3 7.02 -3 6 C-2.01 4.02 -1.02 2.04 0 0 Z " fill="#323232" transform="translate(179,231)"/>
<path d="M0 0 C1.875 0.1875 1.875 0.1875 4 1 C5.78284814 4.29826907 6 6.1774751 6 10 C5.34 10 4.68 10 4 10 C3.32845067 8.71086513 2.66291141 7.41859796 2 6.125 C1.62875 5.40570313 1.2575 4.68640625 0.875 3.9453125 C0 2 0 2 0 0 Z " fill="#5E5E5E" transform="translate(46,311)"/>
<path d="M0 0 C1 3 1 3 0.0625 5.1875 C-0.4634375 6.0846875 -0.4634375 6.0846875 -1 7 C-1.66 7 -2.32 7 -3 7 C-3 7.66 -3 8.32 -3 9 C-3.99 9 -4.98 9 -6 9 C-5.67 7.68 -5.34 6.36 -5 5 C-4.01 5 -3.02 5 -2 5 C-1.855625 4.360625 -1.71125 3.72125 -1.5625 3.0625 C-1 1 -1 1 0 0 Z " fill="#E8E8E8" transform="translate(78,115)"/>
<path d="M0 0 C0.66 0 1.32 0 2 0 C4.04169485 2.90548882 5 4.40142046 5 8 C4.236875 7.690625 3.47375 7.38125 2.6875 7.0625 C0.81210323 6.32106407 -1.08684652 5.63771783 -3 5 C-3 4.34 -3 3.68 -3 3 C-1.68 3.33 -0.36 3.66 1 4 C0.67 2.68 0.34 1.36 0 0 Z " fill="#797979" transform="translate(87,106)"/>
<path d="M0 0 C0.66 1.32 1.32 2.64 2 4 C-0.31 5.98 -2.62 7.96 -5 10 C-5.66 9.67 -6.32 9.34 -7 9 C-6.21625 8.2575 -5.4325 7.515 -4.625 6.75 C-2.43495469 4.45566682 -1.17268614 2.87841142 0 0 Z " fill="#8D8D8D" transform="translate(81,64)"/>
<path d="M0 0 C0.99 0.33 1.98 0.66 3 1 C3.33 2.65 3.66 4.3 4 6 C3.01 6.495 3.01 6.495 2 7 C2 6.34 2 5.68 2 5 C0.68 5 -0.64 5 -2 5 C-2 3.68 -2 2.36 -2 1 C-1.34 0.67 -0.68 0.34 0 0 Z " fill="#5E5E5E" transform="translate(75,61)"/>
<path d="M0 0 C0.33 0 0.66 0 1 0 C1 1.65 1 3.3 1 5 C3.97 5 6.94 5 10 5 C6 7 6 7 3.8125 7.5 C3.214375 7.665 2.61625 7.83 2 8 C1.67 8.66 1.34 9.32 1 10 C0.67 6.7 0.34 3.4 0 0 Z " fill="#383838" transform="translate(59,79)"/>
<path d="M0 0 C0 1.65 0 3.3 0 5 C-1.98 5 -3.96 5 -6 5 C-6 3.68 -6 2.36 -6 1 C-1.125 0 -1.125 0 0 0 Z " fill="#A1A1A1" transform="translate(101,65)"/>
<path d="M0 0 C2.97 0.495 2.97 0.495 6 1 C6.33 2.32 6.66 3.64 7 5 C4.69 4.34 2.38 3.68 0 3 C0 2.01 0 1.02 0 0 Z " fill="#7D7D7D" transform="translate(57,321)"/>
<path d="M0 0 C2.5 2.3125 2.5 2.3125 5 5 C5 5.99 5 6.98 5 8 C2.525 7.01 2.525 7.01 0 6 C0 4.02 0 2.04 0 0 Z " fill="#777777" transform="translate(40,316)"/>
<path d="M0 0 C0 0.99 0 1.98 0 3 C-3.465 4.485 -3.465 4.485 -7 6 C-7 4.68 -7 3.36 -7 2 C-4.35261084 0.5393715 -3.10551666 0 0 0 Z " fill="#0E0E0E" transform="translate(82,249)"/>
<path d="M0 0 C6.52307692 0.61538462 6.52307692 0.61538462 8.9375 2.5625 C9.288125 3.036875 9.63875 3.51125 10 4 C9.01 4.495 9.01 4.495 8 5 C1.25806452 2.51612903 1.25806452 2.51612903 0 0 Z " fill="#434343" transform="translate(61,96)"/>
<path d="M0 0 C0.99 0.66 1.98 1.32 3 2 C3 2.66 3 3.32 3 4 C4.65 4.33 6.3 4.66 8 5 C5.44855176 5.93045933 4.25993522 6.08564091 1.640625 5.22265625 C0.85171875 4.83980469 0.0628125 4.45695312 -0.75 4.0625 C-1.54921875 3.68222656 -2.3484375 3.30195313 -3.171875 2.91015625 C-3.77515625 2.60980469 -4.3784375 2.30945313 -5 2 C-4.34 1.67 -3.68 1.34 -3 1 C-2.01 1.33 -1.02 1.66 0 2 C0 1.34 0 0.68 0 0 Z " fill="#474747" transform="translate(46,322)"/>
<path d="M0 0 C1.32 0.33 2.64 0.66 4 1 C4 1.99 4 2.98 4 4 C3.34 4 2.68 4 2 4 C2 5.65 2 7.3 2 9 C1.34 9 0.68 9 0 9 C0 6.03 0 3.06 0 0 Z " fill="#D5D5D5" transform="translate(95,212)"/>
<path d="M0 0 C1.2065625 0.0309375 1.2065625 0.0309375 2.4375 0.0625 C2.4375 0.7225 2.4375 1.3825 2.4375 2.0625 C1.1175 2.0625 -0.2025 2.0625 -1.5625 2.0625 C-1.8925 3.0525 -2.2225 4.0425 -2.5625 5.0625 C-4.5425 5.3925 -6.5225 5.7225 -8.5625 6.0625 C-2.5625 0.0625 -2.5625 0.0625 0 0 Z " fill="#070707" transform="translate(67.5625,105.9375)"/>
<path d="M0 0 C1.32 0 2.64 0 4 0 C4.33 1.65 4.66 3.3 5 5 C3.35 4.67 1.7 4.34 0 4 C0 2.68 0 1.36 0 0 Z " fill="#3F3F3F" transform="translate(93,242)"/>
<path d="M0 0 C2.64 0.33 5.28 0.66 8 1 C8 1.99 8 2.98 8 4 C5.69 3.67 3.38 3.34 1 3 C0.67 2.01 0.34 1.02 0 0 Z " fill="#717171" transform="translate(53,325)"/>
<path d="M0 0 C0.99 0.33 1.98 0.66 3 1 C2.67 1.66 2.34 2.32 2 3 C1.96955142 5.53593209 2.06685017 8.05565048 2.16015625 10.58984375 C2 13 2 13 0 16 C0 10.72 0 5.44 0 0 Z " fill="#0C0C0C" transform="translate(48,239)"/>
<path d="M0 0 C0.33 0 0.66 0 1 0 C1 2.64 1 5.28 1 8 C0.01 8.495 0.01 8.495 -1 9 C-1.625 5.625 -1.625 5.625 -2 2 C-1.34 1.34 -0.68 0.68 0 0 Z " fill="#ABABAB" transform="translate(120,133)"/>
<path d="M0 0 C0.99 0.495 0.99 0.495 2 1 C2 2.98 2 4.96 2 7 C3.65 7 5.3 7 7 7 C6.67 7.99 6.34 8.98 6 10 C4.35 9.67 2.7 9.34 1 9 C0.67 6.03 0.34 3.06 0 0 Z " fill="#636363" transform="translate(88,58)"/>
<path d="M0 0 C0.99 0 1.98 0 3 0 C4.125 4.75 4.125 4.75 3 7 C2.34 7 1.68 7 1 7 C0.67 4.69 0.34 2.38 0 0 Z " fill="#2A2A2A" transform="translate(69,61)"/>
<path d="M0 0 C0.763125 0.20625 1.52625 0.4125 2.3125 0.625 C1.9825 1.285 1.6525 1.945 1.3125 2.625 C-1.00906597 3.03229228 -3.3443787 3.36938677 -5.6875 3.625 C-5.6875 2.965 -5.6875 2.305 -5.6875 1.625 C-2.6875 -0.375 -2.6875 -0.375 0 0 Z " fill="#141414" transform="translate(87.6875,24.375)"/>
<path d="M0 0 C3.3 0.33 6.6 0.66 10 1 C10 1.66 10 2.32 10 3 C8.375 3.6875 8.375 3.6875 6 4 C2.75 2.5625 2.75 2.5625 0 1 C0 0.67 0 0.34 0 0 Z " fill="#111111" transform="translate(26,221)"/>
<path d="M0 0 C1.32 0.33 2.64 0.66 4 1 C3.67 2.32 3.34 3.64 3 5 C1.35 5 -0.3 5 -2 5 C-2.33 4.01 -2.66 3.02 -3 2 C-2.01 2 -1.02 2 0 2 C0 1.34 0 0.68 0 0 Z " fill="#202020" transform="translate(173,205)"/>
<path d="M0 0 C1.0326802 2.78823655 1.04509293 3.8677274 0.0625 6.75 C-0.288125 7.4925 -0.63875 8.235 -1 9 C-1.66 8.67 -2.32 8.34 -3 8 C-2.74438677 5.6568787 -2.40729228 3.32156597 -2 1 C-1.34 0.67 -0.68 0.34 0 0 Z " fill="#515151" transform="translate(63,86)"/>
<path d="M0 0 C3 3 3 3 4 6 C3.0625 8.6875 3.0625 8.6875 2 11 C1.67 11 1.34 11 1 11 C0.67 7.37 0.34 3.74 0 0 Z " fill="#383838" transform="translate(109,68)"/>
<path d="M0 0 C1.32 0.66 2.64 1.32 4 2 C3.67 2.99 3.34 3.98 3 5 C1.35 4.67 -0.3 4.34 -2 4 C-2.33 4.66 -2.66 5.32 -3 6 C-3 5.01 -3 4.02 -3 3 C-2.01 3 -1.02 3 0 3 C0 2.01 0 1.02 0 0 Z " fill="#7C7C7C" transform="translate(101,67)"/>
<path d="M0 0 C0.99 0 1.98 0 3 0 C1.9024777 2.99324263 1.32317108 3.84610901 -1.625 5.25 C-2.40875 5.4975 -3.1925 5.745 -4 6 C-2.1875 3 -2.1875 3 0 0 Z " fill="#2E2E2E" transform="translate(141,256)"/>
<path d="M0 0 C1.32 0 2.64 0 4 0 C4.268125 0.61875 4.53625 1.2375 4.8125 1.875 C5.95556848 4.2995233 5.95556848 4.2995233 9 6 C7.02 6 5.04 6 3 6 C3 4.35 3 2.7 3 1 C2.01 0.67 1.02 0.34 0 0 Z " fill="#565656" transform="translate(57,78)"/>
<path d="M0 0 C0.33 0.66 0.66 1.32 1 2 C-1.97 2.66 -4.94 3.32 -8 4 C-7.67 3.01 -7.34 2.02 -7 1 C-4.53721199 -0.231394 -2.7204945 -0.07159196 0 0 Z " fill="#242424" transform="translate(74,56)"/>
<path d="M0 0 C2.475 0.495 2.475 0.495 5 1 C5 1.99 5 2.98 5 4 C4.01 4.33 3.02 4.66 2 5 C1.34 3.35 0.68 1.7 0 0 Z " fill="#313131" transform="translate(104,42)"/>
<path d="M0 0 C2.475 0.99 2.475 0.99 5 2 C4.67 2.99 4.34 3.98 4 5 C3.01 5.33 2.02 5.66 1 6 C0.67 4.02 0.34 2.04 0 0 Z " fill="#656565" transform="translate(37,301)"/>
<path d="M0 0 C3 1 3 1 5 4 C4.625 6.1875 4.625 6.1875 4 8 C1.84622436 5.37801226 0.59927826 3.35595828 0 0 Z " fill="#CBCBCB" transform="translate(115,96)"/>
<path d="M0 0 C2.79872437 2.52788007 4.45773019 4.20411134 5 8 C4.01 8 3.02 8 2 8 C0.74335022 5.09399739 0 3.20395416 0 0 Z " fill="#3A3A3A" transform="translate(111,79)"/>
<path d="M0 0 C2 1.1875 2 1.1875 4 3 C4.25 5.6875 4.25 5.6875 4 8 C3.01 7.67 2.02 7.34 1 7 C-0.1875 3.9375 -0.1875 3.9375 -1 1 C-0.67 0.67 -0.34 0.34 0 0 Z " fill="#808080" transform="translate(105,62)"/>
<path d="M0 0 C1.32 0.33 2.64 0.66 4 1 C4 1.66 4 2.32 4 3 C4.99 3.33 5.98 3.66 7 4 C5.02 4.99 5.02 4.99 3 6 C2.01 4.02 1.02 2.04 0 0 Z " fill="#2D2D2D" transform="translate(117,55)"/>
</svg>
